<svg xmlns="http://www.w3.org/2000/svg" version="1.1" xmlns:xlink="http://www.w3.org/1999/xlink" xmlns:svgjs="http://svgjs.com/svgjs" width="1024.000000pt" height="1024.000000pt"><svg version="1.0" xmlns="http://www.w3.org/2000/svg" width="1024.000000pt" height="1024.000000pt" viewBox="0 0 1024.000000 1024.000000" preserveAspectRatio="xMidYMid meet">
<metadata>
Created by potrace 1.14, written by Peter Selinger 2001-2017
</metadata>
<g transform="translate(0.000000,1024.000000) scale(0.100000,-0.100000)" fill="#000000" stroke="none">
<path d="M0 5120 l0 -5120 5120 0 5120 0 0 5120 c0 4544 -2 5120 -15 5120 -13
0 -15 -213 -17 -1847 -1 -1658 -6 -3354 -10 -3583 -1 -47 -1 -263 1 -480 2
-217 0 -407 -4 -422 l-7 -26 -41 21 c-33 18 -45 31 -58 70 -10 27 -26 55 -36
62 -11 8 -64 16 -143 19 -69 4 -160 11 -203 18 -43 6 -108 8 -145 4 -38 -4
-88 -2 -117 4 -27 7 -81 15 -120 20 -38 4 -81 13 -95 18 -14 5 -48 13 -75 16
l-51 7 -31 -48 c-61 -94 -105 -126 -120 -87 -4 11 13 35 55 76 34 34 62 65 62
69 0 20 -25 6 -83 -45 -76 -65 -121 -90 -153 -82 -17 5 -24 13 -24 32 0 23 -3
25 -42 22 -48 -3 -46 1 -36 -116 4 -38 2 -42 -18 -42 -42 0 -86 -13 -91 -27
-3 -8 4 -24 16 -37 28 -29 20 -46 -30 -69 -43 -21 -44 -20 -109 32 -18 15 -20
21 -9 21 8 0 20 -5 26 -11 16 -16 43 -3 43 21 0 12 -7 20 -17 20 -10 0 -31 9
-47 19 -20 13 -39 18 -58 14 -22 -4 -36 0 -56 19 -46 41 -105 75 -163 92 -53
16 -99 46 -99 65 0 14 84 39 168 50 161 22 248 31 284 31 26 0 40 6 47 19 6
10 22 22 36 25 14 4 25 10 25 15 0 5 15 14 34 21 33 11 60 48 48 67 -15 22
-64 20 -115 -4 -44 -22 -62 -25 -119 -21 -74 6 -101 20 -96 52 2 17 9 21 35
19 29 -3 32 0 30 25 -2 24 1 27 27 25 16 -1 46 -14 67 -28 l39 -25 0 31 c0 23
-9 40 -35 63 -41 38 -49 86 -14 86 25 0 22 33 -4 38 -12 2 -17 -3 -17 -18 0
-18 -4 -21 -21 -17 -12 3 -33 -2 -48 -12 -124 -86 -189 -113 -216 -91 -8 7
-15 16 -15 21 0 18 63 79 81 79 10 0 19 4 19 9 0 6 -8 9 -17 9 -20 -2 -111 30
-131 45 -7 6 -12 22 -10 36 2 20 10 27 32 31 17 3 30 8 30 13 2 17 -139 128
-159 125 -21 -3 -74 -89 -75 -120 0 -10 -6 -32 -14 -50 -7 -18 -21 -55 -31
-83 -39 -114 -48 -135 -53 -130 -3 3 0 22 6 42 6 21 20 76 31 123 12 47 30 96
40 110 10 14 21 43 25 65 4 22 21 72 36 110 65 159 68 419 5 507 -8 13 -15 33
-15 45 0 13 -9 40 -20 60 -11 21 -20 45 -20 55 0 9 -5 29 -12 43 -17 38 0 44
28 10 13 -16 24 -24 24 -18 0 13 -54 107 -77 135 -8 9 -13 24 -11 34 2 12 -5
20 -22 24 -14 3 -26 14 -28 25 -8 57 -13 68 -25 56 -17 -17 -55 -13 -61 7 -2
9 -5 40 -5 68 -1 79 -21 112 -132 214 -112 104 -116 131 -8 61 72 -47 83 -50
74 -20 -8 23 -10 24 58 -18 20 -13 37 -18 37 -13 0 26 -108 123 -186 166 -46
26 -85 53 -88 61 -9 22 41 5 104 -35 115 -73 134 -88 178 -139 55 -64 77 -75
68 -36 -4 16 -31 52 -61 82 -30 29 -55 56 -55 60 0 4 11 18 24 30 l24 22 143
-16 c151 -18 283 -15 424 9 59 10 70 15 70 31 0 27 -34 30 -135 11 -103 -20
-264 -20 -355 0 -38 8 -90 19 -116 23 -77 15 -128 31 -135 42 -10 17 16 29 61
29 23 0 66 7 97 15 40 10 101 14 200 13 142 -2 266 15 408 57 66 19 198 85
268 134 58 41 148 143 184 210 9 17 24 31 33 31 20 0 20 -46 -1 -110 -20 -62
-15 -81 13 -51 l21 23 116 -61 c122 -64 136 -69 136 -47 0 15 -21 26 -50 26
-10 0 -33 17 -52 38 -26 29 -37 51 -41 88 -4 27 -15 70 -24 97 -13 37 -14 50
-5 59 10 10 18 6 37 -17 l25 -30 -6 40 c-4 22 -20 77 -36 123 -16 46 -27 89
-25 95 2 7 19 -10 38 -37 19 -27 50 -69 69 -92 19 -24 43 -53 53 -66 l18 -23
-6 40 c-4 22 -10 63 -14 90 -7 48 -21 79 -76 170 -30 49 -30 51 -5 58 12 3 20
14 20 27 0 42 -291 349 -485 511 -112 95 -149 119 -270 178 -77 37 -150 71
-163 75 -12 4 -22 15 -22 24 0 35 188 285 224 298 10 3 75 7 143 7 107 0 123
3 121 16 -2 9 -28 29 -58 44 -42 22 -59 26 -72 18 -26 -16 -113 -13 -156 5
l-37 15 33 30 c24 22 37 27 50 21 9 -5 39 -10 66 -11 30 -1 57 -8 68 -18 14
-13 20 -13 33 -3 21 18 19 40 -5 40 -36 0 -90 28 -99 52 -11 30 4 58 31 58 16
0 19 -5 16 -25 -4 -19 -1 -25 13 -25 11 0 19 5 19 10 0 6 15 10 33 10 l32 1
-37 30 c-41 33 -48 62 -20 78 12 7 22 5 37 -8 14 -12 29 -16 50 -11 l30 6 -35
16 c-50 22 -67 44 -52 69 15 24 10 35 -20 42 -13 3 -56 17 -95 31 -70 25 -147
34 -168 18 -6 -4 -18 -19 -28 -34 -11 -18 -26 -28 -42 -28 -26 0 -45 -25 -45
-60 0 -21 -4 -24 -53 -34 -20 -5 -29 -14 -34 -36 -6 -30 -29 -58 -39 -47 -4 3
1 24 10 47 20 50 21 123 2 139 -12 10 -20 9 -38 -2 -28 -18 -62 -8 -79 25 -6
13 -23 35 -38 50 -14 15 -42 47 -61 72 -38 49 -55 56 -65 27 -3 -10 -14 -26
-25 -36 -11 -10 -20 -31 -20 -48 0 -16 -13 -48 -29 -71 -15 -24 -30 -55 -33
-70 -5 -27 -4 -28 29 -21 24 4 40 2 52 -8 9 -8 29 -17 44 -21 30 -7 30 -5 11
-72 -4 -17 0 -23 21 -28 15 -4 33 -2 40 4 15 12 55 5 55 -9 0 -5 22 -11 50
-15 29 -4 60 -16 77 -30 15 -13 44 -31 63 -41 59 -30 61 -33 44 -68 -9 -16
-49 -70 -90 -119 -41 -49 -74 -92 -74 -96 -1 -4 -22 -31 -49 -60 l-47 -54 -85
26 c-47 14 -88 26 -92 26 -17 0 -4 -26 26 -51 29 -26 30 -28 10 -29 -53 -1
-26 -31 50 -54 18 -6 24 -46 7 -46 -5 0 -26 -14 -45 -32 -36 -31 -45 -30 -58
5 -5 17 -76 25 -117 13 -38 -9 -43 -9 -56 9 -8 11 -19 20 -24 20 -13 0 -50 33
-50 44 0 4 9 20 20 34 24 30 25 41 5 57 -12 10 -16 8 -24 -13 -5 -14 -15 -28
-20 -32 -16 -9 -13 -51 4 -65 19 -16 19 -39 0 -46 -22 -9 -68 -105 -56 -117
12 -12 61 6 61 23 0 19 23 10 61 -25 22 -19 46 -35 54 -35 8 0 15 -5 15 -10 0
-6 11 -15 25 -20 25 -10 25 -10 8 -37 -56 -90 -92 -119 -119 -94 -5 5 -32 16
-60 25 -54 18 -175 95 -233 149 -38 36 -91 114 -91 134 0 8 -16 48 -35 89 -19
41 -35 86 -35 100 0 33 -14 58 -67 120 -37 44 -50 53 -96 62 -38 7 -54 7 -59
-1 -13 -21 -9 -29 12 -24 11 3 23 1 26 -5 3 -5 17 -13 30 -18 22 -9 34 -40 15
-40 -16 0 -80 30 -86 40 -13 21 -35 10 -35 -18 0 -15 -9 -35 -21 -45 -30 -27
-20 -56 32 -91 41 -28 47 -37 59 -91 7 -33 19 -74 27 -92 7 -18 13 -44 13 -59
0 -14 14 -44 31 -65 l31 -39 -31 3 c-31 4 -61 23 -61 39 0 5 -17 32 -38 61
-68 94 -179 282 -196 335 -17 50 -17 51 5 81 22 29 22 31 5 50 -19 21 -14 41
10 41 8 0 14 5 14 10 0 12 -12 13 -42 1 -13 -5 -55 -16 -94 -26 -56 -13 -77
-14 -93 -6 -24 13 -52 7 -146 -33 -74 -32 -87 -32 -121 -2 l-28 23 -18 -21
-18 -21 -18 24 -19 23 -17 -43 c-10 -24 -30 -58 -46 -76 -19 -21 -31 -48 -35
-80 -18 -132 -59 -167 -152 -128 -35 15 -40 14 -97 -8 -92 -37 -129 -47 -167
-47 -26 0 -30 3 -19 10 8 5 25 10 37 10 12 0 75 27 140 61 138 71 154 87 114
109 -14 7 -29 5 -57 -6 -22 -9 -54 -14 -78 -11 -27 2 -54 -2 -78 -15 -23 -11
-48 -16 -62 -12 -33 8 -66 -4 -66 -24 0 -21 -62 -62 -94 -62 -24 0 -78 -52
-90 -87 -4 -10 -34 -31 -67 -48 -34 -16 -70 -42 -80 -56 -11 -16 -34 -31 -56
-36 -27 -6 -39 -15 -41 -29 -2 -15 -29 -34 -97 -67 -52 -26 -102 -47 -110 -47
-8 0 -15 -5 -15 -11 0 -6 9 -9 20 -6 27 7 25 -9 -5 -45 -20 -23 -23 -33 -15
-49 15 -27 34 -24 77 13 27 23 31 25 16 7 -13 -14 -23 -34 -23 -45 0 -47 -47
-70 -102 -50 -50 17 -59 26 -52 48 5 18 3 19 -38 13 -23 -3 -54 -2 -68 4 -14
5 -19 10 -12 10 15 1 16 21 0 21 -6 0 -20 -8 -31 -17 -16 -15 -36 -18 -121
-16 -55 1 -114 3 -131 5 -28 3 -30 1 -28 -26 1 -16 30 -85 64 -155 34 -69 65
-133 69 -141 3 -8 39 -35 79 -58 81 -49 107 -50 98 -2 -7 31 18 126 38 148 10
11 22 7 66 -21 66 -43 120 -97 97 -97 -9 0 -42 23 -73 51 -55 51 -76 59 -57
22 6 -10 38 -44 71 -76 34 -32 61 -60 61 -62 0 -3 -12 0 -27 6 -14 5 -33 7
-40 4 -12 -4 -11 -10 6 -31 11 -14 18 -31 15 -38 -3 -8 20 -26 58 -47 41 -22
57 -35 46 -37 -16 -3 -96 16 -143 34 -36 14 -10 -18 40 -51 63 -40 64 -60 4
-52 -22 3 -39 3 -39 1 0 -2 21 -15 46 -30 29 -17 43 -32 40 -41 -10 -25 51
-42 129 -36 58 5 68 3 58 -8 -7 -7 -13 -23 -13 -35 0 -12 -7 -24 -15 -28 -8
-3 -15 -18 -15 -34 0 -26 -2 -28 -32 -24 -38 5 -58 26 -58 60 0 15 7 26 20 29
42 11 17 23 -50 23 -59 0 -71 -3 -80 -20 -17 -32 -41 -26 -33 10 6 33 2 36
-27 18 -15 -10 -22 -9 -38 5 -15 14 -21 15 -30 5 -19 -24 -52 -118 -52 -151 0
-33 -26 -84 -65 -127 -12 -14 -26 -38 -29 -54 -4 -16 -19 -43 -33 -60 -14 -17
-34 -50 -44 -73 -10 -24 -27 -44 -39 -48 -13 -4 -19 -12 -16 -21 6 -15 -27
-33 -69 -39 -11 -2 -47 -15 -80 -28 -33 -14 -85 -28 -115 -32 -30 -4 -67 -14
-82 -21 -35 -18 -178 -64 -200 -64 -10 0 -39 -13 -64 -30 -26 -16 -64 -33 -83
-36 -20 -4 -49 -13 -64 -21 -16 -8 -43 -13 -61 -12 -20 2 -46 -5 -69 -19 -29
-19 -40 -21 -57 -12 -11 6 -20 15 -20 20 0 18 -53 59 -99 76 -25 10 -64 30
-85 46 -21 15 -47 28 -56 28 -9 0 -31 13 -50 30 -18 16 -49 35 -69 41 -56 18
-144 68 -168 96 -13 16 -27 24 -37 20 -47 -18 16 -105 107 -148 126 -59 127
-83 2 -150 -58 -31 -61 -31 -259 -40 -213 -8 -302 -20 -325 -44 -13 -12 -11
-16 15 -25 16 -6 49 -9 74 -5 72 9 282 15 307 9 13 -4 23 -12 23 -20 0 -14
-18 -20 -85 -27 -140 -16 -345 -83 -345 -115 0 -12 11 -13 67 -7 37 4 78 12
93 17 29 12 125 26 228 34 77 6 108 -4 85 -27 -13 -13 -177 -71 -268 -94 -63
-17 -92 -36 -81 -54 10 -15 42 -14 106 4 30 9 80 22 110 29 50 12 103 27 199
58 29 9 36 7 54 -11 l21 -21 -24 -25 c-14 -13 -63 -50 -110 -82 -82 -56 -103
-84 -68 -91 20 -4 155 65 196 100 45 39 119 69 227 94 66 16 126 34 133 41 7
7 29 15 50 19 20 3 54 17 74 31 20 14 81 40 135 58 54 18 112 39 128 47 33 17
250 80 330 95 89 18 341 91 376 109 19 9 88 37 154 62 66 24 154 56 195 71
137 51 190 79 208 112 19 35 114 179 167 254 19 28 48 85 63 127 41 118 62
103 87 -59 20 -124 62 -316 81 -369 l14 -40 113 4 112 4 51 -35 c50 -35 83
-43 243 -62 24 -3 48 -8 54 -12 5 -3 39 -8 75 -10 72 -5 129 -24 138 -47 3 -8
-6 -36 -20 -63 -14 -26 -26 -52 -26 -56 0 -5 -9 -20 -20 -34 -11 -14 -23 -41
-26 -61 -4 -20 -13 -43 -21 -50 -7 -7 -13 -34 -13 -61 0 -35 -10 -67 -40 -126
-41 -80 -50 -129 -27 -138 8 -3 22 -36 32 -74 10 -37 24 -75 31 -84 8 -8 14
-21 14 -27 0 -7 4 -12 9 -12 10 0 44 49 47 68 1 7 14 28 28 47 14 18 26 42 26
53 0 11 7 22 15 26 8 3 15 12 15 20 0 23 38 40 56 25 22 -18 17 -39 -21 -75
-19 -18 -35 -41 -35 -51 0 -10 -14 -29 -30 -43 -17 -14 -30 -33 -30 -42 0 -10
-5 -18 -11 -18 -6 0 -9 -12 -7 -27 3 -27 1 -28 -37 -27 -36 2 -54 -8 -55 -28
0 -5 9 -8 20 -8 15 0 20 -7 20 -25 0 -28 -21 -33 -40 -10 -17 20 -31 6 -36
-33 -2 -17 -16 -50 -31 -75 -25 -42 -34 -48 -132 -86 -58 -23 -111 -41 -118
-41 -15 0 -63 -62 -92 -119 -12 -25 -37 -63 -55 -85 -18 -23 -50 -69 -71 -103
-21 -35 -44 -63 -51 -63 -19 0 -37 38 -30 66 6 22 3 24 -28 24 -34 0 -48 -11
-99 -84 -22 -32 -62 -36 -54 -6 3 10 -2 25 -9 31 -8 7 -13 21 -12 33 3 21 -3
23 -50 12 -37 -8 -54 3 -48 33 10 45 -42 89 -71 60 -6 -6 -33 -13 -59 -14 -43
-3 -63 -16 -64 -39 0 -4 11 -5 24 -2 13 3 44 3 70 0 44 -6 45 -7 39 -38 -9
-53 -39 -74 -116 -82 -41 -4 -67 -3 -67 3 0 5 20 24 45 42 48 35 57 51 26 51
-11 0 -21 5 -23 11 -2 6 -24 13 -49 16 -40 5 -46 3 -59 -21 -10 -21 -18 -25
-34 -19 -12 4 -37 7 -56 6 -19 -1 -60 -2 -90 -2 -46 0 -63 -5 -99 -31 -40 -29
-47 -31 -100 -25 -31 3 -80 5 -110 5 -52 -1 -53 0 -47 25 5 18 2 27 -8 31 -12
5 -14 20 -9 76 6 69 6 70 -15 59 -11 -6 -22 -16 -24 -22 -3 -8 -13 -7 -35 5
-42 21 -46 20 -39 -10 6 -21 4 -25 -10 -22 -10 2 -21 15 -25 29 -3 15 -17 40
-29 57 -21 29 -22 34 -10 77 7 25 16 48 21 51 12 7 102 -17 121 -33 11 -10 27
-13 46 -8 40 8 45 -4 22 -50 -11 -21 -17 -41 -15 -44 9 -8 53 39 66 70 10 25
9 32 -7 50 -15 17 -29 20 -84 19 -74 -2 -126 7 -154 26 -57 39 -113 -85 -76
-168 23 -51 25 -82 6 -101 -12 -12 -12 -16 6 -31 17 -15 19 -26 15 -60 -6 -41
-5 -43 28 -59 57 -27 43 -79 -22 -83 -21 -1 -72 -4 -113 -7 -99 -7 -135 7
-144 57 -4 22 -14 39 -24 42 -9 3 -24 10 -32 15 -36 22 -43 21 -67 -10 -34
-44 -69 -42 -89 4 -13 32 -45 55 -77 55 -8 0 -8 -3 1 -12 23 -23 13 -46 -24
-58 -26 -9 -39 -9 -47 -1 -14 14 -50 14 -65 -1 -9 -9 -17 -8 -37 2 -23 12 -28
11 -55 -15 -17 -16 -30 -35 -30 -42 0 -19 60 -41 133 -49 66 -7 145 -40 131
-54 -10 -9 -127 -40 -153 -40 -10 0 -26 -9 -36 -20 -20 -22 -52 -25 -104 -10
-43 12 -68 -7 -73 -54 -3 -26 -7 -31 -30 -31 -35 0 -38 -4 -73 -92 -31 -78
-55 -105 -55 -61 0 41 -27 102 -59 133 -17 17 -31 36 -31 42 0 23 -19 23 -48
-2 -34 -28 -92 -34 -111 -11 -10 11 -8 16 7 20 11 4 22 16 25 27 3 11 20 25
37 32 27 10 30 15 24 37 -3 14 -8 44 -9 67 -4 50 -11 63 -32 63 -9 0 -31 9
-49 20 -26 17 -47 20 -101 19 -40 -2 -78 3 -92 10 -23 13 -47 11 -84 -4 -16
-7 -18 -4 -12 29 8 41 8 42 -39 19 -29 -13 -40 -14 -61 -5 -14 6 -25 19 -25
28 0 9 -8 28 -19 42 -12 19 -16 33 -10 47 23 60 5 68 -74 31 -29 -14 -64 -29
-79 -35 -19 -7 -25 -15 -22 -28 8 -28 -32 -73 -64 -73 -15 0 -40 -9 -57 -20
-26 -17 -30 -26 -31 -69 -2 -64 -9 -76 -38 -57 -12 8 -49 17 -81 21 -33 5 -74
14 -92 21 -50 21 -59 18 -92 -33 -90 -141 -185 -243 -225 -243 -8 0 -35 -20
-60 -44 -47 -47 -47 -57 6 -70 14 -3 34 -9 43 -12 15 -6 16 -4 6 14 -9 17 -6
24 20 46 34 29 40 30 88 16 28 -8 38 -6 60 11 19 15 34 19 57 14 19 -3 35 -1
39 5 4 6 19 10 33 9 52 -4 72 1 72 17 0 9 9 29 21 45 16 23 24 27 34 19 18
-15 28 -61 16 -73 -20 -20 -11 -34 36 -59 42 -21 47 -28 49 -60 2 -25 -4 -46
-18 -64 -21 -26 -23 -26 -100 -19 -74 6 -80 5 -97 -16 -18 -22 -19 -22 -59 -6
-23 9 -42 13 -42 9 0 -8 29 -25 150 -89 47 -25 99 -58 115 -74 17 -16 36 -29
43 -29 15 0 16 22 1 37 -7 7 -9 19 -5 28 5 15 8 15 35 -1 29 -17 30 -17 85 16
30 19 58 40 61 48 8 21 -5 62 -20 62 -25 0 -77 52 -72 72 3 10 -2 22 -10 27
-28 15 -7 41 32 41 20 0 46 7 58 15 18 11 41 13 105 8 75 -5 84 -9 119 -40 51
-48 89 -65 122 -58 19 4 37 -1 61 -17 48 -33 59 -54 38 -75 -16 -16 -20 -16
-51 -1 -34 16 -122 14 -132 -2 -5 -8 78 -30 109 -30 8 0 19 -7 26 -15 14 -17
56 -20 65 -4 8 12 111 59 131 59 7 0 17 8 23 17 8 15 15 16 58 6 88 -20 177
-45 263 -74 47 -15 112 -30 145 -34 33 -3 83 -14 110 -24 63 -25 174 -61 200
-66 11 -2 37 -7 58 -10 45 -7 47 -19 6 -41 -30 -15 -36 -15 -101 6 -38 12 -78
20 -88 17 -11 -3 -21 0 -23 6 -2 6 -29 10 -66 8 -53 -2 -69 2 -100 22 -38 26
-117 39 -311 53 -83 5 -101 3 -143 -15 -56 -24 -92 -26 -127 -6 -45 26 -87 19
-123 -19 -31 -34 -146 -96 -178 -96 -11 0 -20 -15 -28 -44 -11 -46 -58 -96
-89 -96 -10 0 -50 9 -90 20 -100 28 -150 27 -161 -3 -9 -23 -54 -62 -100 -86
-13 -7 -62 -14 -110 -16 -47 -2 -107 -6 -133 -10 -41 -6 -49 -5 -55 11 -4 12
-1 21 12 28 40 24 83 67 89 91 3 13 18 31 34 39 73 40 91 43 205 33 46 -4 57
-2 57 10 0 10 -6 12 -20 8 -15 -5 -20 -2 -20 14 0 11 5 23 10 26 6 3 10 11 10
16 0 6 -12 2 -28 -9 -36 -26 -96 -42 -159 -42 -41 0 -57 -5 -79 -25 -20 -19
-33 -23 -53 -18 -48 11 -69 21 -102 51 -19 15 -72 55 -119 87 -127 87 -140 98
-140 113 0 8 9 16 20 19 34 9 23 26 -56 88 -42 33 -80 71 -85 84 -9 22 -10 23
-35 7 -38 -26 -116 -32 -134 -11 -12 14 -12 18 0 25 11 7 9 13 -10 28 -21 17
-23 24 -15 48 8 23 17 30 43 32 47 5 29 22 -22 22 -35 0 -45 -4 -49 -19 -3
-12 -15 -21 -33 -23 -48 -5 -32 -39 29 -61 5 -1 5 -10 2 -19 -7 -17 -125 -68
-158 -68 -28 0 -77 29 -77 45 0 9 -20 30 -45 47 -39 28 -43 34 -31 46 12 12
21 12 67 -1 90 -25 109 -28 109 -17 0 5 -19 19 -42 31 -70 36 -108 71 -108
100 0 21 -6 28 -30 32 -18 4 -34 17 -44 34 -7 16 -23 36 -34 46 -17 15 -24 17
-42 7 -12 -7 -33 -10 -46 -7 -21 4 -23 1 -18 -22 11 -46 38 -84 83 -116 25
-17 53 -46 64 -65 l18 -33 -29 -29 c-22 -23 -34 -28 -55 -23 -25 7 -111 97
-135 145 -13 24 -81 94 -327 337 l-120 118 0 2663 c1 2551 0 2662 -17 2662
-17 0 -18 -207 -18 -5120z m6360 3188 c-1 -22 -84 -172 -99 -176 -11 -4 -12 8
-7 59 4 53 10 68 38 96 32 33 68 44 68 21z m293 -30 c-6 -7 -14 -28 -18 -47
-8 -37 -50 -129 -80 -176 -42 -65 -84 -105 -140 -135 -84 -44 -90 -25 -16 52
43 44 75 91 106 153 48 99 129 195 147 177 8 -8 8 -15 1 -24z m452 -53 c0 -11
11 -41 24 -67 21 -39 23 -49 12 -62 -19 -23 -30 -20 -37 10 -4 14 -22 40 -41
58 -29 26 -33 36 -28 59 6 24 12 28 39 25 23 -2 31 -8 31 -23z m-905 -56 c0
-11 4 -29 10 -39 5 -10 10 -46 11 -81 1 -51 -3 -71 -27 -115 -16 -30 -35 -54
-41 -54 -17 0 -17 2 10 52 19 38 22 56 20 155 0 65 3 111 8 107 5 -3 9 -14 9
-25z m1921 -116 c-12 -16 -37 -52 -57 -81 -38 -56 -62 -78 -50 -47 10 26 109
155 119 155 5 0 -1 -12 -12 -27z m170 -19 c79 -32 87 -39 71 -64 -6 -11 -12
-31 -12 -45 0 -13 -6 -42 -14 -62 -8 -21 -17 -59 -20 -86 -7 -59 -25 -95 -92
-178 -113 -142 -202 -185 -311 -150 -41 13 -93 9 -93 -8 0 -5 9 -11 20 -14 35
-9 21 -24 -27 -30 -27 -2 -56 -8 -65 -12 -23 -9 -25 27 -3 45 9 7 27 37 41 66
16 35 39 64 65 81 21 16 42 38 45 51 3 12 9 22 13 22 4 0 31 -36 60 -80 32
-50 58 -80 70 -80 21 0 61 36 61 55 0 28 -20 65 -35 65 -9 0 -26 10 -38 23
-12 13 -37 30 -54 38 -22 9 -33 21 -33 34 0 11 33 59 73 105 74 87 157 202
157 218 0 14 23 32 40 32 9 0 45 -12 81 -26z m162 -20 c70 -35 165 -104 205
-148 18 -20 29 -36 25 -36 -5 0 8 -10 27 -21 60 -37 148 -119 165 -155 9 -19
29 -41 45 -49 17 -9 57 -42 90 -74 65 -63 73 -91 45 -141 -19 -33 -19 -81 2
-153 16 -57 16 -62 -7 -155 -24 -96 -24 -96 -103 -182 -73 -79 -204 -180 -234
-180 -23 0 -121 -41 -159 -66 -36 -25 -146 -66 -209 -78 -18 -4 -41 0 -59 9
-37 20 -40 19 -84 -9 -63 -41 -83 -42 -124 -3 -20 19 -49 37 -65 40 -15 3 -46
10 -67 14 -21 4 -39 12 -38 17 0 5 29 18 64 29 80 24 98 40 98 88 0 41 -30 74
-89 99 -33 13 -37 33 -8 38 9 2 30 16 46 32 16 16 49 34 75 41 43 11 59 30 36
44 -16 10 -12 23 11 30 14 5 19 13 16 26 -7 28 29 49 85 49 75 0 72 26 -11 80
-21 14 -22 18 -11 58 6 24 18 46 26 49 8 3 21 18 30 34 8 16 25 31 37 34 13 4
76 -3 141 -14 119 -21 244 -26 281 -12 17 7 15 9 -15 19 -60 18 -386 30 -433
16 -16 -5 -18 -1 -15 27 2 28 8 35 33 40 17 4 77 19 135 33 196 46 240 86 56
50 -50 -9 -108 -23 -130 -30 -21 -8 -42 -11 -47 -8 -16 9 -10 32 13 48 22 16
22 16 -10 16 -17 0 -32 2 -32 5 0 19 29 59 59 79 33 22 57 31 144 50 15 4 27
13 27 20 0 8 15 26 33 40 42 34 47 38 81 60 l29 18 -29 24 c-16 14 -74 57
-129 96 -55 39 -104 75 -109 80 -18 15 5 8 57 -18z m-1753 -53 c0 -11 20 -41
45 -68 50 -53 58 -77 23 -64 -13 4 -24 18 -26 29 -2 13 -10 20 -23 19 -22 -1
-25 -12 -6 -21 8 -4 9 -8 1 -11 -6 -3 -19 -11 -29 -18 -16 -12 -15 -15 9 -44
28 -33 66 -40 66 -13 0 13 2 13 10 0 6 -9 5 -17 -3 -22 -8 -5 -6 -12 8 -22 20
-16 20 -16 -4 -35 l-24 -19 31 -16 c18 -9 32 -23 32 -30 0 -8 20 -27 44 -42
25 -16 49 -39 55 -51 6 -13 14 -23 19 -23 5 0 20 -10 33 -21 17 -15 20 -23 11
-26 -22 -8 7 -33 39 -33 18 0 29 -5 29 -14 0 -7 12 -16 28 -19 15 -2 41 -9 57
-15 59 -21 133 -33 159 -26 l26 6 -28 49 c-30 56 -86 98 -140 106 -20 4 -46
15 -57 26 -11 10 -38 28 -60 39 -22 11 -57 36 -78 54 -26 25 -47 34 -71 34
-24 0 -35 5 -38 18 -3 9 -7 21 -9 26 -6 12 60 16 88 5 13 -5 22 -5 21 -1 -2 9
35 72 43 72 3 0 18 -13 34 -30 30 -31 49 -37 60 -20 9 14 -36 90 -53 90 -20 0
-9 25 14 28 10 1 34 -7 52 -18 29 -18 33 -25 27 -49 -7 -34 18 -50 41 -26 19
19 14 20 54 -10 19 -14 41 -25 49 -25 21 0 270 -123 271 -133 0 -4 -17 -37
-37 -73 -42 -72 -64 -84 -111 -60 -36 19 -42 14 -42 -35 0 -21 -4 -41 -10 -44
-17 -11 -11 -44 10 -55 11 -6 20 -19 20 -29 0 -24 -86 -114 -100 -106 -6 4 -8
11 -4 16 10 18 -6 59 -23 59 -9 0 -36 -9 -59 -20 -40 -20 -44 -20 -81 -5 -24
10 -50 14 -71 10 -46 -9 -120 20 -124 49 -3 19 -9 21 -63 20 -33 -1 -69 -2
-80 -4 -11 -1 -40 1 -64 5 -56 10 -53 -11 6 -41 23 -11 56 -40 75 -64 36 -47
61 -60 198 -101 41 -13 81 -27 88 -32 18 -14 15 -47 -4 -47 -10 0 -14 -6 -11
-14 4 -10 -5 -15 -31 -19 -70 -11 -403 9 -542 33 -30 5 -100 17 -155 26 -55 9
-118 23 -140 31 -21 7 -62 15 -90 18 -95 7 -289 57 -301 76 -7 11 18 11 48 0
87 -32 99 -17 18 24 -57 29 -67 42 -48 61 11 12 23 9 78 -17 146 -69 273 -103
240 -65 -6 8 -28 20 -48 27 -56 18 -198 85 -232 109 -38 27 -38 45 1 69 17 10
26 20 19 23 -23 7 2 36 38 42 49 8 98 39 121 77 16 26 55 56 149 113 11 7 12
4 4 -10 -13 -23 -58 -65 -95 -89 -39 -25 -34 -65 10 -84 17 -8 36 -24 42 -37
6 -13 17 -24 24 -24 7 0 22 -8 33 -17 44 -39 86 -64 102 -61 18 4 -3 28 -112
127 -46 41 -48 45 -31 57 10 8 30 11 44 8 50 -10 116 -37 136 -54 18 -15 56
-36 155 -84 19 -10 52 -26 73 -37 56 -27 71 -25 62 8 -10 40 -21 50 -78 69
-101 33 -187 90 -187 125 0 25 -27 49 -56 49 -14 0 -36 11 -50 25 -21 21 -24
31 -18 60 4 21 12 35 21 35 7 0 24 10 36 23 41 42 72 54 156 62 83 7 121 25
121 58 0 7 14 25 31 40 31 27 59 35 59 17 0 -5 5 -10 11 -10 8 0 10 12 6 35
-5 30 -3 35 14 35 12 0 19 -7 19 -19z m-155 -81 c-3 -5 -12 -10 -18 -10 -7 0
-6 4 3 10 19 12 23 12 15 0z m1870 -28 c0 -18 -20 -15 -23 4 -3 10 1 15 10 12
7 -3 13 -10 13 -16z m-2371 -128 c-11 -29 -36 -54 -92 -96 -42 -32 -87 -58
-100 -58 -38 0 -21 23 40 53 36 17 76 49 110 86 29 33 54 58 55 57 2 -1 -4
-20 -13 -42z m86 26 c0 -12 -49 -45 -55 -38 -9 8 36 59 46 53 5 -4 9 -10 9
-15z m1432 -4 c11 -16 10 -22 -6 -35 -16 -14 -50 0 -96 39 l-25 21 60 -6 c33
-4 63 -12 67 -19z m-2292 -80 c0 -3 -4 -8 -10 -11 -5 -3 -10 -1 -10 4 0 6 5
11 10 11 6 0 10 -2 10 -4z m-515 -35 c10 -17 -11 -21 -31 -6 -18 14 -18 14 3
15 12 0 24 -4 28 -9z m2843 -61 c-7 -10 -14 -17 -17 -15 -4 4 18 35 25 35 2 0
-1 -9 -8 -20z m-2688 -30 c0 -5 -8 -13 -17 -19 -10 -5 -16 -12 -13 -14 15 -14
112 -57 129 -57 11 0 26 -10 32 -22 7 -12 21 -30 33 -40 34 -28 -4 -22 -44 7
-19 14 -38 25 -43 25 -4 0 -27 13 -50 28 -23 16 -57 34 -75 42 -18 7 -38 22
-44 33 -9 17 -8 19 11 14 11 -3 21 -1 21 4 0 5 14 9 30 9 17 0 30 -4 30 -10z
m4200 -76 c0 -8 -4 -12 -10 -9 -5 3 -10 10 -10 16 0 5 5 9 10 9 6 0 10 -7 10
-16z m-2070 -14 c0 -5 -4 -10 -10 -10 -5 0 -10 5 -10 10 0 6 5 10 10 10 6 0
10 -4 10 -10z m-1877 -61 c-11 -12 -29 -19 -39 -17 -15 3 -12 7 16 25 40 26
53 21 23 -8z m2613 -128 c-3 -5 -27 -12 -53 -16 -26 -4 -61 -14 -76 -22 -32
-16 -43 -12 -34 12 4 8 19 15 34 16 15 0 37 4 48 9 27 11 88 12 81 1z m-2746
-201 c0 -5 -4 -10 -9 -10 -6 0 -13 5 -16 10 -3 6 1 10 9 10 9 0 16 -4 16 -10z
m185 0 c-3 -5 -30 -9 -58 -8 l-52 1 50 7 c28 4 54 8 58 8 5 1 5 -2 2 -8z
m-127 -7 c-10 -2 -26 -2 -35 0 -10 3 -2 5 17 5 19 0 27 -2 18 -5z m132 -103
c0 -26 -27 -80 -40 -80 -14 0 -12 13 5 46 10 20 11 32 3 41 -8 10 -6 13 11 13
15 0 21 -6 21 -20z m-133 -194 c-20 -65 -34 -81 -67 -79 -35 1 -52 13 -31 21
27 9 51 43 51 70 0 37 6 42 34 29 20 -10 22 -15 13 -41z m2803 -236 c0 -13
-40 -13 -60 0 -11 7 -5 10 23 10 20 0 37 -4 37 -10z m-526 -31 c46 -27 45 -37
-1 -41 -36 -3 -38 -5 -35 -35 1 -24 -2 -33 -13 -33 -23 0 -38 38 -27 68 6 15
13 35 16 45 7 22 17 22 60 -4z m-74 -128 c0 -5 3 -16 6 -25 5 -12 0 -16 -20
-16 -29 0 -30 3 -16 31 11 20 30 26 30 10z m-317 -91 c-5 -19 -23 -29 -23 -12
0 7 20 32 26 32 1 0 0 -9 -3 -20z m-219 -106 c21 -21 12 -34 -25 -34 -24 0
-29 -4 -29 -25 0 -18 -9 -31 -30 -43 -29 -17 -66 -85 -55 -102 3 -5 -6 -12
-20 -16 -14 -3 -25 -12 -25 -20 0 -7 -13 -28 -29 -46 -23 -26 -27 -38 -19 -51
12 -23 3 -47 -17 -47 -12 0 -15 -6 -10 -20 5 -16 2 -20 -15 -20 -16 0 -20 -5
-16 -15 4 -12 -3 -15 -34 -15 -44 0 -57 12 -35 30 8 7 15 18 15 25 0 7 18 31
40 54 22 22 40 47 40 55 0 16 76 133 101 156 17 16 71 102 82 133 8 22 60 23
81 1z m416 -56 c16 -56 17 -86 5 -90 -13 -3 -33 39 -41 90 -5 35 -4 42 9 42
11 0 20 -15 27 -42z m-50 -150 c0 -10 -4 -18 -10 -18 -5 0 -10 15 -10 33 0 24
3 28 10 17 5 -8 10 -23 10 -32z m195 -86 c9 -30 14 -59 12 -65 -7 -22 -47 72
-47 110 0 47 13 31 35 -45z m-155 -3 c0 -10 5 -21 10 -24 6 -3 10 -17 10 -30
0 -13 4 -26 9 -29 4 -3 11 -28 15 -56 6 -47 9 -50 35 -50 37 0 50 -16 57 -73
5 -36 3 -48 -8 -52 -21 -8 -250 91 -270 118 -22 27 -23 56 -3 63 8 3 39 -8 68
-25 77 -44 81 -42 72 27 -4 31 -11 62 -15 67 -12 15 -23 82 -15 95 9 15 35 -7
35 -31z m107 -93 c5 -62 5 -66 -16 -66 -19 0 -21 6 -21 53 0 115 28 125 37 13z
m80 -388 c-3 -7 -5 -2 -5 12 0 14 2 19 5 13 2 -7 2 -19 0 -25z m22 -111 c1
-21 6 -47 12 -58 15 -28 29 -182 20 -216 -7 -25 -9 -22 -20 32 -34 163 -49
279 -39 304 l11 26 7 -25 c5 -14 8 -42 9 -63z m-949 -8 c0 -32 17 -38 50 -17
16 10 26 9 57 -9 21 -12 70 -31 110 -42 40 -12 85 -32 100 -45 15 -12 43 -31
61 -41 17 -11 32 -25 32 -32 0 -8 14 -16 30 -20 17 -3 33 -10 36 -14 3 -5 17
-9 32 -9 30 0 77 -32 77 -52 0 -7 9 -14 20 -17 11 -2 22 -6 25 -10 9 -12 50
-31 65 -31 8 0 15 -4 15 -10 0 -5 11 -10 25 -10 14 0 25 -4 25 -10 0 -5 16
-12 35 -16 20 -3 35 -12 35 -20 0 -7 18 -22 40 -33 22 -10 40 -15 40 -10 0 5
-4 9 -10 9 -5 0 -10 5 -10 11 0 6 12 9 28 7 22 -2 28 -9 30 -34 2 -17 14 -42
28 -55 l24 -22 0 38 c0 28 3 36 11 28 14 -14 15 -78 1 -127 -8 -31 -8 -42 3
-50 20 -17 26 -178 9 -238 -10 -31 -12 -54 -6 -65 5 -10 7 -33 5 -51 -6 -35
-35 -61 -97 -87 -42 -18 -49 -39 -10 -29 20 5 25 3 22 -7 -3 -9 -17 -13 -36
-12 -17 2 -34 -2 -37 -7 -3 -6 -19 -10 -36 -10 -25 0 -29 -4 -29 -26 0 -23 -3
-25 -26 -20 -17 5 -43 -1 -79 -19 -30 -14 -57 -25 -62 -25 -4 0 -24 -5 -44
-10 -44 -12 -53 -36 -33 -92 20 -57 18 -68 -11 -68 -18 0 -25 5 -25 20 0 16
-7 20 -30 20 -18 0 -33 6 -36 15 -4 8 -14 15 -23 15 -20 0 -41 19 -41 36 0 16
90 84 111 84 10 0 52 16 93 35 41 19 81 35 88 35 8 0 33 20 57 44 38 39 43 48
36 73 -4 15 -8 40 -8 56 -2 31 -30 45 -52 27 -17 -14 -50 -5 -91 26 -17 13
-36 24 -42 24 -14 0 -19 23 -27 123 -4 42 -11 77 -16 77 -5 0 -17 -17 -25 -37
-9 -21 -20 -46 -25 -55 -5 -10 -9 -27 -9 -37 0 -11 -4 -22 -9 -25 -11 -7 -111
34 -111 46 0 15 25 19 53 9 21 -8 25 -7 20 4 -3 9 -18 15 -37 15 -17 0 -48 5
-70 11 -21 6 -69 12 -107 13 -55 2 -74 7 -92 24 -13 12 -27 22 -32 22 -23 0
-45 35 -45 72 0 33 -3 38 -23 38 -13 0 -32 -9 -42 -20 -14 -15 -21 -17 -31 -9
-16 13 -114 -6 -114 -22 0 -5 31 -9 70 -9 63 0 71 -2 85 -24 9 -13 36 -34 59
-45 24 -11 60 -31 80 -45 20 -13 55 -27 77 -31 29 -5 53 -19 83 -49 73 -72 74
-74 14 -68 -29 3 -63 11 -75 19 -12 8 -59 18 -105 23 -69 7 -89 6 -121 -8 -40
-19 -47 -46 -14 -66 14 -9 21 -7 35 12 16 21 23 22 75 16 69 -8 83 -18 91 -67
7 -36 6 -38 -30 -53 -22 -9 -48 -13 -68 -8 l-31 6 28 -29 c29 -32 34 -52 15
-71 -7 -7 -12 -24 -13 -39 0 -24 -3 -26 -55 -30 -137 -9 -125 -10 -122 17 7
57 5 121 -5 131 -8 8 -16 2 -29 -20 -22 -37 -53 -40 -95 -10 -24 16 -29 28
-29 59 0 48 -15 58 -91 61 -66 3 -104 -18 -112 -61 -7 -31 -47 -63 -47 -37 0
13 88 174 113 207 7 8 17 25 24 36 112 203 221 386 249 417 19 23 34 45 34 51
-1 6 -11 42 -24 81 -17 52 -21 77 -15 100 14 49 11 62 -21 75 -16 7 -30 16
-30 21 0 13 37 11 63 -2 18 -10 24 -8 44 17 29 37 29 39 -7 54 -16 7 -35 19
-42 28 -11 13 -10 14 12 9 14 -3 35 -9 48 -12 18 -6 22 -4 22 14 0 12 5 19 10
16 6 -3 10 -19 10 -36z m1005 -381 c5 -30 4 -48 -3 -48 -13 0 -22 35 -22 85 1
51 15 29 25 -37z m-2427 -115 c-2 -10 -12 -18 -23 -18 -11 0 -21 8 -23 18 -3
13 3 17 23 17 20 0 26 -4 23 -17z m-211 -9 c-3 -3 -12 -4 -19 -1 -8 3 -5 6 6
6 11 1 17 -2 13 -5z m-2554 -59 c15 -1 37 -7 50 -12 12 -6 31 -14 42 -18 30
-10 -1 -25 -52 -25 -46 0 -54 -12 -26 -42 15 -17 15 -18 -6 -18 -12 0 -24 7
-28 15 -3 9 -21 22 -39 30 -22 9 -34 21 -34 34 0 27 29 54 49 45 9 -4 28 -8
44 -9z m2392 -20 c22 -8 56 -12 75 -9 19 3 105 -2 190 -11 85 -9 176 -13 202
-10 54 8 85 -5 98 -41 10 -26 27 -29 80 -13 137 41 244 53 253 27 2 -7 -9 -37
-24 -67 -16 -30 -29 -59 -29 -65 -1 -27 -39 -59 -81 -67 -69 -12 -129 -30
-193 -56 -41 -16 -69 -22 -89 -17 -20 4 -27 3 -23 -5 4 -6 15 -11 24 -11 16 0
72 -47 72 -61 0 -13 -29 -18 -62 -9 -18 5 -54 11 -80 14 -26 2 -56 9 -66 15
-24 13 -42 -3 -35 -30 6 -21 23 -25 41 -7 9 9 21 8 52 -2 22 -7 40 -17 40 -21
0 -4 -9 -24 -21 -43 -18 -31 -26 -36 -58 -36 -43 0 -61 14 -61 48 0 19 -4 23
-17 17 -45 -19 -62 -17 -89 10 -30 30 -25 31 -117 -16 -24 -13 -37 -3 -37 28
0 37 84 114 183 168 45 24 97 60 116 79 l33 34 -30 15 c-26 12 -56 13 -208 4
-99 -6 -182 -15 -185 -20 -4 -5 -35 -10 -70 -12 -51 -1 -72 3 -106 22 -23 12
-53 23 -68 23 -32 0 -42 22 -21 52 9 12 16 35 16 51 l0 28 85 -2 c46 -2 88 0
91 4 12 12 76 7 119 -8z m-2760 -103 c0 -15 6 -28 13 -28 6 -1 19 -2 27 -3 8
0 24 -10 35 -21 16 -16 18 -25 10 -40 -14 -26 -36 -25 -50 1 -9 16 -20 20 -53
18 -37 -3 -42 -1 -39 16 2 11 10 30 18 42 8 12 14 32 14 45 0 17 3 19 12 10 7
-7 12 -24 13 -40z m2345 19 c0 -27 -13 -33 -44 -21 -43 16 -31 32 32 39 6 0
12 -8 12 -18z m-1830 -6 c0 -8 -4 -15 -10 -15 -5 0 -10 7 -10 15 0 8 5 15 10
15 6 0 10 -7 10 -15z m1684 6 c12 -19 -7 -41 -34 -41 -38 0 -46 15 -18 34 25
18 44 20 52 7z m-1890 -7 c10 -4 16 -18 16 -37 0 -17 7 -38 16 -48 22 -24 7
-102 -20 -107 -17 -4 -18 1 -13 39 5 39 3 47 -24 73 -33 33 -36 48 -13 70 18
18 17 18 38 10z m552 -49 c18 -27 9 -59 -10 -33 -6 8 -21 20 -33 27 -30 16
-29 31 2 31 15 0 31 -9 41 -25z m-372 0 c26 -20 17 -26 -38 -30 -55 -3 -67 8
-29 29 35 19 43 19 67 1z m1994 -24 c10 -6 8 -10 -9 -14 -24 -7 -39 -1 -39 14
0 11 30 12 48 0z m-3963 -41 c-5 -8 -11 -8 -17 -2 -6 6 -7 16 -3 22 5 8 11 8
17 2 6 -6 7 -16 3 -22z m4369 21 c5 -8 -45 -71 -56 -71 -10 0 -18 48 -12 64 6
17 59 22 68 7z m-614 -24 c0 -8 17 -13 51 -15 27 -1 63 -9 79 -17 16 -8 39
-15 52 -15 13 0 43 -9 67 -20 42 -19 43 -21 28 -43 -13 -21 -13 -25 4 -46 l19
-23 0 26 c0 21 5 26 23 26 26 0 38 -20 57 -92 7 -23 25 -65 41 -92 17 -26 28
-50 25 -53 -6 -6 -94 26 -121 44 -11 7 -29 13 -41 13 -12 0 -36 17 -57 40 -35
39 -37 40 -105 40 -60 0 -71 3 -92 25 l-23 25 -32 -20 c-37 -23 -102 -26 -151
-8 -29 10 -35 9 -72 -20 -21 -17 -50 -36 -63 -42 -13 -6 -35 -17 -49 -25 -55
-32 -97 -8 -67 39 11 16 12 27 5 34 -7 7 -5 18 7 35 l17 26 -54 3 c-45 3 -53
6 -56 24 -3 23 39 64 66 64 9 0 24 8 34 17 22 19 81 21 103 3 10 -8 19 -9 28
-3 13 10 118 49 152 56 47 11 125 7 125 -6z m-1890 -57 c0 -5 -2 -10 -4 -10
-3 0 -8 5 -11 10 -3 6 -1 10 4 10 6 0 11 -4 11 -10z m12 -62 c-16 -16 -37 4
-28 28 6 16 8 16 23 1 13 -13 15 -19 5 -29z m3008 12 c0 -5 -7 -10 -15 -10 -8
0 -15 5 -15 10 0 6 7 10 15 10 8 0 15 -4 15 -10z m-2222 -17 c-4 -20 -18 -26
-37 -14 -18 12 -5 31 20 31 14 0 19 -6 17 -17z m3907 -33 c3 -5 17 -10 30 -10
13 0 30 -3 39 -6 47 -18 -22 -59 -94 -56 -46 2 -57 -1 -72 -20 -13 -18 -20
-20 -29 -11 -9 9 -5 19 20 43 17 17 31 35 31 39 0 9 39 29 57 30 6 1 15 -3 18
-9z m951 -128 c-9 -25 -16 -64 -16 -86 -1 -35 -2 -38 -12 -22 -20 35 -6 155
26 226 10 23 11 22 14 -24 2 -26 -4 -69 -12 -94z m-2499 93 c27 -19 183 -85
200 -85 7 0 13 -4 13 -10 0 -15 -16 -12 -63 9 -23 10 -75 31 -114 46 -43 16
-73 33 -73 41 0 18 10 18 37 -1z m-1782 -4 c26 -5 30 -11 32 -41 1 -20 -5 -42
-14 -52 -20 -22 -66 -23 -83 -3 -7 8 -18 15 -26 15 -19 0 -26 17 -15 37 5 10
12 26 15 36 6 18 34 20 91 8z m-157 -38 c12 -10 23 -31 24 -48 2 -24 -2 -31
-25 -39 -35 -13 -57 5 -37 30 12 14 12 17 -3 25 -28 16 -19 44 14 48 4 1 16
-7 27 -16z m2646 8 c8 -13 -26 -71 -41 -71 -18 0 -16 17 4 51 18 30 28 35 37
20z m-1279 -73 c29 -13 31 -23 9 -66 -18 -37 -16 -36 -68 -18 -50 17 -64 48
-36 76 23 23 57 26 95 8z m-2905 -48 c0 -5 -4 -10 -10 -10 -5 0 -10 5 -10 10
0 6 5 10 10 10 6 0 10 -4 10 -10z m4301 0 c28 -16 23 -30 -10 -30 -31 0 -47
13 -36 30 8 13 21 13 46 0z m-4891 -24 c0 -14 -21 -58 -26 -54 -8 8 7 58 17
58 5 0 9 -2 9 -4z m698 -2 c12 -4 22 -13 22 -21 0 -12 -7 -14 -32 -9 -37 7
-42 11 -33 25 7 13 12 13 43 5z m3050 -12 c3 -10 -5 -12 -34 -6 -63 11 -75 24
-20 22 30 -2 51 -8 54 -16z m4155 -22 c31 -27 34 -34 34 -89 0 -51 -4 -64 -24
-83 l-24 -23 -19 25 c-17 23 -20 23 -37 8 -29 -26 -59 -30 -97 -14 -40 17 -44
30 -20 65 13 18 23 22 45 17 16 -3 36 -3 44 0 14 6 14 9 0 30 -18 27 -19 48
-5 75 16 29 63 24 103 -11z m-8800 -4 c30 -14 64 -38 76 -54 11 -16 40 -37 63
-47 24 -9 53 -26 65 -37 20 -18 26 -19 52 -8 28 11 34 10 79 -22 44 -32 53
-35 103 -30 48 4 59 1 86 -22 27 -22 36 -25 82 -19 42 5 51 3 51 -10 0 -8 -13
-20 -30 -26 -20 -7 -30 -17 -30 -30 0 -16 -6 -21 -25 -21 -14 0 -29 -8 -35
-20 -6 -12 -23 -26 -38 -31 l-27 -11 23 -15 c32 -22 28 -43 -8 -43 -19 0 -33
7 -40 20 -6 11 -7 20 -3 20 4 0 -5 11 -21 24 l-30 23 23 12 c15 9 20 18 16 29
-4 9 -8 22 -9 27 -4 22 -58 65 -81 65 -35 0 -31 -17 10 -41 37 -22 47 -55 19
-66 -9 -3 -24 -1 -33 5 -9 7 -30 18 -48 26 -17 8 -34 24 -38 35 -7 22 -14 25
-40 15 -14 -6 -14 -8 1 -25 23 -25 7 -43 -30 -33 -27 6 -35 29 -13 37 6 2 9 8
4 12 -4 5 -13 3 -19 -3 -25 -25 -59 -13 -109 41 -27 28 -49 57 -49 64 0 17
-59 83 -75 83 -7 0 -18 -7 -25 -15 -7 -8 -19 -15 -26 -15 -21 0 -17 34 7 56
12 10 27 31 35 46 8 16 18 28 23 28 5 0 33 -11 64 -24z m5847 -16 c20 -16 23
-22 14 -37 -15 -24 -50 -28 -80 -8 -39 26 -23 55 36 64 3 0 16 -8 30 -19z
m-5230 -14 c0 -8 -5 -18 -10 -21 -13 -8 -42 14 -34 26 9 15 44 10 44 -5z
m8634 -12 c17 -6 22 -24 8 -24 -5 0 -17 7 -28 15 -19 15 -8 20 20 9z m-3187
-10 c12 -3 25 -15 29 -26 7 -24 -1 -34 -18 -20 -13 10 -72 3 -110 -13 -15 -6
-18 -2 -18 23 0 21 6 32 18 35 26 7 74 7 99 1z m-5129 -82 c3 -9 -2 -13 -14
-10 -9 1 -19 9 -22 16 -3 9 2 13 14 10 9 -1 19 -9 22 -16z m-1078 -12 c0 -5
-4 -10 -10 -10 -5 0 -10 5 -10 10 0 6 5 10 10 10 6 0 10 -4 10 -10z m4345 -6
c17 -9 41 -23 55 -30 24 -12 70 -65 70 -79 0 -16 -46 3 -56 23 -14 28 -56 52
-92 52 -22 0 -51 23 -52 43 0 13 44 7 75 -9z m2204 -15 c28 -10 43 -29 22 -29
-22 0 -70 23 -65 31 7 11 5 11 43 -2z m-2842 -34 c37 -20 80 -45 94 -56 23
-18 48 -23 185 -31 88 -5 188 -16 224 -25 36 -8 97 -21 135 -28 103 -18 166
-48 151 -73 -2 -4 -32 -5 -66 -2 -66 6 -97 -3 -67 -21 9 -5 17 -19 17 -29 0
-27 18 -34 46 -19 28 15 48 2 38 -24 -7 -18 -23 -21 -73 -11 -24 5 -35 15 -46
40 -8 19 -19 34 -25 34 -6 0 -17 15 -26 33 -11 22 -29 38 -57 50 -48 19 -83
21 -156 7 -38 -7 -57 -6 -71 2 -22 14 -35 6 -26 -17 4 -10 13 -14 24 -11 27 9
59 -28 42 -49 -15 -18 -6 -47 14 -43 15 3 18 -6 8 -30 -2 -7 0 -24 6 -38 9
-19 9 -24 -2 -24 -12 0 -119 122 -148 170 -20 33 -258 149 -292 143 -18 -4
-31 -1 -37 8 -14 22 -11 29 12 29 13 0 20 6 18 18 -2 22 0 32 5 32 3 0 36 -16
73 -35z m-352 14 l40 -11 -37 -19 c-46 -24 -63 -51 -48 -79 9 -18 7 -23 -19
-38 -38 -21 -39 -39 -4 -48 21 -6 31 -2 50 20 19 22 21 31 12 42 -17 20 3 18
62 -7 40 -17 47 -24 38 -35 -6 -8 -17 -14 -24 -14 -8 0 -44 -16 -81 -36 -72
-38 -94 -39 -135 -5 -23 18 -23 20 -6 39 17 19 15 20 -62 51 -44 17 -85 31
-90 31 -19 0 -12 15 18 44 21 20 56 36 113 51 99 27 120 28 173 14z m-3204
-40 l22 -32 -22 -18 c-28 -23 -50 -24 -79 -3 -29 20 -29 58 1 72 37 18 55 14
78 -19z m981 10 c9 -5 30 -9 47 -9 38 0 91 -30 91 -52 0 -14 8 -18 34 -18 18
0 39 -7 46 -15 8 -10 21 -13 39 -8 l26 6 -23 -25 c-24 -26 -96 -60 -106 -50
-4 3 1 13 10 23 15 16 13 17 -28 12 -24 -3 -52 -14 -64 -24 -25 -23 -47 -24
-80 -2 -33 21 -50 1 -27 -33 8 -13 12 -28 8 -34 -10 -17 28 -11 62 9 27 17 32
18 37 4 5 -12 9 -13 21 -3 8 7 15 19 15 26 0 8 7 14 15 14 8 0 15 -7 15 -15 0
-20 41 -29 94 -21 41 6 45 5 66 -24 19 -26 19 -31 6 -36 -9 -3 -28 1 -42 11
-20 13 -37 15 -74 10 -56 -8 -85 -31 -57 -46 19 -11 47 -60 47 -83 0 -8 -13
-19 -30 -24 -26 -10 -35 -7 -77 22 -30 21 -66 35 -97 39 -62 9 -71 23 -40 60
l25 30 -31 18 c-19 12 -30 27 -30 41 0 12 -7 29 -16 39 -21 23 -12 35 31 43
45 9 45 26 0 26 -22 0 -38 -6 -41 -15 -4 -8 -17 -15 -29 -15 -32 0 -40 -17
-15 -30 39 -21 19 -57 -25 -46 -32 8 -43 45 -20 62 17 13 16 14 -6 23 -32 12
-63 47 -54 61 4 6 1 17 -5 25 -14 17 -14 16 20 21 14 2 48 8 75 12 55 10 160
4 187 -9z m2401 -11 c33 -37 30 -58 -7 -51 -32 6 -35 -13 -4 -23 21 -6 21 -7
3 -20 -26 -19 -46 -17 -43 4 2 12 -5 18 -22 20 -36 5 -50 22 -18 22 37 0 55
25 34 48 -9 10 -13 22 -9 25 14 15 40 5 66 -25z m4485 20 c-3 -7 -13 -15 -23
-16 -15 -4 -16 -2 -4 12 17 19 32 21 27 4z m845 -22 c4 -6 6 -29 5 -51 -4 -49
-28 -58 -65 -23 -37 34 -45 55 -33 78 9 17 17 20 48 14 20 -4 40 -12 45 -18z
m-8923 -1 c20 -10 27 -20 23 -31 -4 -12 -20 -15 -70 -13 -52 2 -67 -1 -75 -14
-12 -22 -31 -21 -53 3 -31 34 -14 49 52 43 46 -4 61 -2 72 11 16 20 15 19 51
1z m8171 -25 c5 0 9 -4 9 -8 0 -13 -73 -33 -83 -23 -11 11 34 43 51 36 8 -3
18 -5 23 -5z m-444 -62 c-2 -13 -4 -3 -4 22 0 25 2 35 4 23 2 -13 2 -33 0 -45z
m333 13 c0 -19 -22 -23 -38 -7 -15 15 -14 16 11 16 15 0 27 -4 27 -9z m-7987
-16 c-4 -15 -36 -12 -41 3 -3 9 3 13 19 10 13 -1 23 -7 22 -13z m8457 5 c11
-7 12 -12 3 -21 -15 -15 -47 -7 -51 14 -4 19 23 23 48 7z m-5401 -50 c43 -54
42 -91 -4 -113 -42 -20 -70 -21 -114 -6 -24 8 -31 17 -31 36 0 25 -1 25 -25 9
-30 -20 -41 -21 -25 -1 7 8 30 20 51 25 30 8 40 17 45 38 9 38 32 61 54 55 10
-3 32 -22 49 -43z m-3131 23 c2 -8 -6 -13 -22 -13 -15 0 -29 -7 -32 -15 -8
-20 -53 -19 -61 1 -8 20 15 35 43 28 12 -3 25 -1 29 6 9 14 37 9 43 -7z m5770
-2 c94 -27 120 -38 161 -69 50 -39 126 -82 145 -82 31 0 127 -53 147 -81 11
-15 30 -52 44 -82 17 -39 37 -64 72 -90 53 -39 109 -96 168 -170 l38 -48 -12
-63 c-12 -62 -12 -63 19 -121 34 -62 30 -82 -14 -71 -24 6 -117 79 -125 98 -2
5 5 19 16 31 22 25 43 71 43 92 0 8 -9 15 -21 15 -15 0 -19 5 -17 22 2 16 -3
24 -17 26 -11 3 -32 13 -47 23 -47 34 -115 49 -171 38 -65 -12 -144 -12 -152
1 -15 24 -51 10 -68 -26 -17 -35 -64 -64 -106 -64 -10 0 -26 -11 -35 -24 -45
-69 -144 -104 -207 -72 -43 21 -43 21 -65 -20 -10 -20 -31 -42 -47 -50 -15 -8
-39 -33 -53 -55 l-25 -40 -53 6 c-40 5 -55 3 -65 -9 -7 -8 -29 -20 -48 -27
l-36 -12 24 -13 c13 -7 39 -13 57 -14 30 0 53 -22 39 -36 -3 -3 -46 -7 -96 -9
-61 -3 -118 -13 -171 -30 -45 -14 -99 -25 -122 -25 -31 0 -45 -6 -60 -25 -11
-14 -29 -25 -40 -25 -17 0 -19 5 -15 26 4 22 0 28 -27 39 -17 7 -42 25 -55 39
-23 25 -24 27 -7 45 10 11 15 27 12 38 -7 21 28 83 47 83 7 0 29 9 49 19 19
11 38 17 42 14 8 -9 -4 -55 -20 -74 -17 -19 -18 -39 -3 -39 6 0 29 16 52 35
54 46 87 46 139 -1 28 -25 47 -34 66 -32 33 4 39 34 13 65 -16 20 -22 21 -49
11 -26 -10 -36 -9 -67 8 -20 10 -46 31 -56 46 -20 27 -20 27 1 45 11 10 20 26
20 36 0 40 55 27 113 -27 24 -22 33 -25 60 -18 53 14 47 41 -21 100 -61 53
-72 55 -72 15 0 -16 -6 -23 -19 -23 -42 0 -56 62 -14 68 12 2 27 10 35 19 11
14 10 16 -16 11 -40 -8 -56 0 -56 27 0 20 6 24 48 30 33 4 58 1 84 -9 42 -18
78 -21 78 -6 0 14 -72 60 -95 60 -12 0 -30 6 -41 14 -30 23 -4 39 71 44 55 4
72 0 114 -21 l49 -26 6 22 c6 24 -8 37 -41 37 -27 0 -58 43 -49 67 5 11 10 13
17 6 7 -7 21 -7 47 0 28 9 36 9 40 -1 2 -8 15 -17 27 -22 16 -6 25 -19 27 -37
2 -22 9 -29 31 -31 23 -3 28 0 25 16 -2 10 4 27 12 37 11 14 12 19 3 22 -27 9
-12 32 25 39 47 10 130 10 162 1 14 -4 32 -3 40 3 24 17 -35 58 -93 66 -58 8
-101 38 -77 54 25 16 76 12 184 -16 115 -30 166 -63 169 -109 1 -15 11 -33 21
-39 11 -6 40 -23 65 -38 56 -35 64 -35 86 -1 16 24 16 27 1 38 -9 7 -41 20
-71 30 -30 9 -55 23 -55 30 0 7 -17 31 -39 54 -31 32 -46 41 -73 41 -35 0 -58
14 -58 37 0 9 8 11 24 7 13 -3 27 -1 31 5 4 7 -16 21 -52 36 -32 14 -70 32
-85 40 -16 10 -53 15 -100 15 -62 0 -87 -6 -158 -36 -85 -36 -102 -42 -171
-63 -78 -24 -107 -8 -58 33 52 44 87 58 122 50 44 -10 75 -6 122 19 39 21 154
44 228 46 20 1 68 -8 105 -18z m3272 -11 c0 -5 -7 -10 -15 -10 -8 0 -15 5 -15
10 0 6 7 10 15 10 8 0 15 -4 15 -10z m-2380 -30 c-8 -5 -17 -7 -19 -4 -3 3 1
9 9 14 8 5 17 7 19 4 3 -3 -1 -9 -9 -14z m1999 -12 c23 -20 23 -22 5 -35 -25
-18 -30 -17 -53 13 -35 45 5 63 48 22z m-4369 -39 c29 -6 49 -16 47 -22 -5
-16 -66 -30 -80 -18 -7 5 -31 14 -55 20 -89 24 -12 42 88 20z m2060 2 c0 -5
-7 -14 -15 -21 -12 -10 -19 -10 -28 -1 -9 9 -9 14 3 21 19 12 40 13 40 1z
m1770 -26 c19 -14 39 -25 46 -25 6 0 22 -8 35 -19 21 -16 21 -21 10 -49 -8
-18 -23 -33 -37 -36 -28 -7 -42 -50 -25 -77 22 -36 14 -42 -43 -35 -48 6 -54
5 -59 -13 -8 -31 -49 -42 -201 -52 -102 -6 -144 -5 -160 3 -11 7 -56 12 -98
13 -70 1 -78 -1 -87 -22 -8 -18 -6 -25 13 -40 33 -26 46 -54 35 -75 -7 -12 -4
-26 10 -48 l19 -31 31 33 c36 38 36 37 16 85 -21 50 -20 53 24 53 42 0 55 -10
65 -52 4 -17 18 -34 37 -43 27 -15 30 -20 23 -48 -9 -45 -11 -47 -43 -41 -31
6 -31 6 -86 -68 -20 -26 -45 -53 -57 -59 -22 -12 -17 -16 -124 89 l-34 33 -27
-21 c-20 -16 -36 -20 -59 -15 -31 5 -94 33 -94 40 0 2 11 15 25 29 28 29 32
58 10 76 -12 10 -19 10 -27 2 -16 -16 -48 -15 -54 2 -10 26 15 55 54 61 72 13
75 15 58 34 -26 29 -19 48 27 70 24 12 48 21 53 21 6 0 25 11 44 25 18 14 50
27 69 31 63 10 69 14 47 29 -18 14 -18 15 9 25 15 6 43 8 61 4 29 -5 35 -3 43
18 7 19 29 30 110 58 56 19 107 40 113 47 7 9 39 13 102 13 83 0 96 -3 126
-25z m-1630 -25 c-20 -13 -43 -13 -35 0 3 6 16 10 28 10 18 0 19 -2 7 -10z
m2580 1 c0 -5 -7 -12 -16 -15 -22 -9 -24 -8 -24 9 0 8 9 15 20 15 11 0 20 -4
20 -9z m-2766 -10 c8 -12 -17 -61 -31 -61 -22 0 -24 19 -6 45 19 26 29 30 37
16z m-5437 -21 c22 -17 23 -21 9 -26 -9 -3 -25 -4 -36 -1 -11 3 -22 1 -25 -3
-3 -4 20 -16 50 -25 30 -10 55 -20 55 -23 0 -2 -53 -1 -118 2 -116 7 -119 7
-148 -17 -16 -13 -44 -28 -61 -31 -18 -4 -35 -11 -38 -16 -6 -9 56 -30 87 -30
10 0 41 -10 70 -21 90 -36 278 -28 278 11 0 6 -17 18 -37 27 -31 13 -35 17
-22 27 8 6 18 20 22 30 6 15 10 17 19 8 7 -7 19 -12 27 -12 12 0 11 3 -3 13
-16 12 -16 14 3 31 29 27 87 15 172 -34 37 -22 76 -40 86 -40 10 0 25 -5 33
-11 11 -7 -2 -8 -46 -4 -47 5 -69 3 -93 -9 -36 -19 -39 -31 -10 -39 30 -8 18
-32 -16 -32 -33 -1 -42 -16 -21 -35 15 -12 64 -2 161 31 107 38 94 18 -30 -45
l-90 -47 -103 2 c-82 1 -106 -2 -121 -15 -10 -9 -22 -16 -28 -16 -15 0 -27 34
-14 38 22 7 10 22 -26 31 -21 5 -67 12 -101 16 -35 3 -99 19 -141 35 -99 36
-166 42 -381 33 -183 -8 -260 -7 -260 5 0 4 10 14 23 22 24 15 85 25 250 40
60 5 114 14 121 19 6 5 44 10 84 9 54 0 77 4 91 16 10 9 29 16 42 16 14 0 44
14 68 31 81 60 171 76 218 39z m5563 2 c0 -5 -11 -19 -25 -32 -14 -13 -25 -29
-25 -37 0 -7 -7 -13 -15 -13 -21 0 -19 43 3 62 26 24 62 35 62 20z m-1402 -64
c-8 -24 -69 -57 -126 -68 -31 -6 -68 -13 -81 -16 -13 -3 -25 -14 -28 -24 -6
-22 -54 -39 -90 -32 -32 6 -28 19 10 36 17 7 49 28 71 45 21 17 48 31 60 31
11 0 50 9 86 19 78 23 103 25 98 9z m4168 -55 c-10 -10 -19 5 -10 18 6 11 8
11 12 0 2 -7 1 -15 -2 -18z m-846 -2 c12 -24 7 -28 -50 -32 -35 -3 -45 -1 -45
11 0 8 8 15 17 15 10 0 23 6 30 13 18 18 36 15 48 -7z m810 -46 c0 -18 -5 -25
-20 -25 -22 0 -26 20 -8 38 19 19 28 14 28 -13z m208 -28 c2 -12 -3 -17 -17
-17 -23 0 -24 1 -15 25 8 19 28 15 32 -8z m595 -1 c14 -19 3 -236 -13 -246
-15 -10 -64 6 -81 26 -15 18 -88 18 -156 0 -39 -10 -123 -14 -312 -15 -318 0
-381 -11 -381 -66 0 -26 -42 -65 -104 -97 -53 -27 -93 -37 -196 -48 -47 -5
-121 -14 -165 -20 -61 -8 -89 -8 -118 1 -32 11 -46 10 -80 -2 -32 -12 -49 -13
-70 -5 -20 7 -33 7 -47 -2 -15 -9 -32 -9 -69 -1 -43 9 -50 14 -53 37 -2 19 -9
27 -22 27 -15 0 -30 -19 -55 -72 -41 -83 -54 -88 -114 -46 -42 29 -41 24 -12
129 14 49 17 52 64 68 64 21 71 20 71 -4 0 -31 22 -24 65 20 21 22 45 40 52
40 7 0 33 -9 57 -21 34 -15 49 -18 64 -10 10 5 59 10 108 10 49 -1 127 6 174
14 47 9 137 19 200 23 63 3 124 11 134 17 11 5 45 13 75 17 63 9 122 29 199
67 50 25 58 26 157 19 95 -6 134 1 105 19 -18 11 -11 23 43 64 28 22 59 46 67
53 24 21 58 24 235 20 109 -3 173 -9 178 -16z m-5353 -41 c-7 -8 -24 -15 -39
-15 -25 1 -25 1 -7 15 11 8 29 15 39 15 16 0 17 -3 7 -15z m-4725 -5 c26 -10
26 -10 9 -40 -10 -16 -24 -32 -31 -34 -15 -6 -18 20 -3 29 17 10 0 26 -21 20
-24 -8 -25 10 -1 24 21 13 16 13 47 1z m2023 -11 c20 -6 9 -8 -40 -6 -39 2
-73 8 -80 16 -11 11 -3 12 40 6 29 -4 65 -11 80 -16z m6242 -9 c29 -29 26 -50
-9 -50 -17 0 -33 -4 -36 -10 -8 -13 -105 -13 -105 0 0 5 12 16 28 24 15 8 36
23 46 35 24 26 50 27 76 1z m1150 10 c0 -5 -4 -10 -10 -10 -5 0 -10 5 -10 10
0 6 5 10 10 10 6 0 10 -4 10 -10z m-7048 -11 c20 -11 20 -12 -8 -30 -28 -18
-29 -18 -36 2 -14 37 5 49 44 28z m-217 -10 c22 -6 56 -12 75 -13 27 -1 36 -6
38 -22 2 -11 -3 -26 -11 -33 -20 -16 -67 5 -67 31 0 10 -6 18 -12 19 -47 2
-91 10 -106 18 -14 9 -12 10 13 10 17 0 48 -4 70 -10z m785 -12 c81 -21 140
-63 140 -99 0 -33 -12 -35 -70 -12 -31 13 -46 14 -71 5 -18 -6 -43 -11 -56
-11 -22 0 -24 3 -18 30 9 39 -20 54 -44 23 -22 -26 -54 -43 -83 -43 -27 0 -82
39 -58 41 8 1 0 4 -19 8 -110 20 45 86 179 76 25 -1 70 -10 100 -18z m1603 -5
c-17 -15 -58 -35 -90 -45 -32 -10 -64 -20 -71 -23 -8 -4 -5 7 7 27 27 44 75
68 136 68 l50 0 -32 -27z m3862 -2 c3 -6 -4 -10 -17 -10 -13 0 -29 -9 -36 -20
-7 -12 -17 -18 -23 -14 -14 8 29 54 52 54 10 0 21 -4 24 -10z m-7455 -100 c-6
-12 -21 -25 -33 -31 -69 -31 -162 -97 -165 -118 -5 -32 -29 -37 -51 -10 -18
22 -18 26 -3 51 11 18 20 24 26 18 20 -20 61 -10 99 25 21 19 43 35 50 35 7 0
26 11 42 25 37 30 49 32 35 5z m1602 -5 c7 -16 19 -25 34 -25 13 0 25 -4 29
-9 8 -15 -50 -51 -82 -51 -15 0 -51 -13 -80 -29 -29 -16 -54 -26 -57 -23 -8 8
-7 55 2 68 14 21 114 94 128 94 8 0 20 -11 26 -25z m2453 -6 c9 -26 6 -28 -27
-22 -41 8 -34 39 9 42 6 1 15 -8 18 -20z m-4171 2 c6 -10 -16 -21 -41 -21 -13
0 -13 3 -3 15 14 17 36 20 44 6z m5406 -91 c0 -5 -4 -10 -10 -10 -5 0 -10 5
-10 10 0 6 5 10 10 10 6 0 10 -4 10 -10z m-1697 -35 l47 -24 42 19 c57 26 77
25 112 -5 16 -13 32 -22 37 -19 12 7 49 -18 49 -33 0 -25 -50 -25 -140 1 -50
14 -100 26 -111 26 -10 0 -45 14 -76 30 -44 24 -50 30 -31 30 14 0 46 -11 71
-25z m1657 1 c0 -3 -4 -8 -10 -11 -5 -3 -10 -1 -10 4 0 6 5 11 10 11 6 0 10
-2 10 -4z m-5799 -69 c-10 -9 -11 -8 -5 6 3 10 9 15 12 12 3 -3 0 -11 -7 -18z
m1493 -51 c-22 -35 -105 -86 -140 -86 -75 0 -134 -13 -135 -29 0 -9 -13 -41
-29 -71 -16 -30 -36 -69 -44 -86 -18 -38 -40 -48 -68 -31 -16 9 -22 9 -25 0
-3 -7 -8 -13 -13 -13 -10 0 22 62 56 109 13 19 27 46 30 60 3 14 9 32 13 40
13 25 101 49 179 50 74 1 112 12 112 33 0 20 33 48 57 48 23 0 23 -1 7 -24z
m2966 4 c0 -26 -28 -70 -45 -70 -7 0 -28 13 -48 29 -36 28 -36 28 -14 39 21
11 52 18 90 21 11 1 17 -6 17 -19z m1150 -10 c0 -5 -26 -10 -57 -12 -43 -2
-58 -7 -58 -18 0 -8 14 -17 32 -21 43 -8 74 -46 66 -79 -3 -14 -7 -27 -9 -29
-3 -3 -76 24 -92 35 -2 1 -5 16 -7 34 -3 18 -12 38 -22 45 -14 10 -15 16 -6
25 22 24 153 41 153 20z m368 -25 c2 -15 -2 -40 -8 -54 -32 -70 -65 -128 -85
-151 -13 -14 -26 -36 -30 -49 -6 -21 -11 -23 -47 -17 -22 4 -54 2 -72 -5 -27
-10 -36 -8 -64 8 l-33 20 31 13 c19 8 47 36 70 70 43 64 59 74 94 60 25 -9 46
3 46 27 0 7 9 17 21 23 15 9 19 18 15 35 -5 18 0 28 16 39 30 21 42 16 46 -19z
m-5858 5 c-19 -13 -30 -13 -30 0 0 6 10 10 23 10 18 0 19 -2 7 -10z m4158 -30
c38 0 60 -24 42 -45 -7 -8 -22 -15 -33 -15 -11 0 -30 -11 -43 -25 -13 -14 -31
-25 -42 -25 -27 0 -130 -58 -142 -80 -6 -10 -10 -31 -10 -47 0 -21 -13 -39
-54 -75 -30 -26 -66 -53 -80 -59 -14 -7 -26 -16 -26 -20 0 -17 -33 -39 -59
-39 -31 0 -88 54 -115 108 -9 18 -27 37 -40 42 -52 19 -69 130 -20 130 36 0
74 18 68 32 -3 7 -24 22 -47 34 -35 17 -43 26 -45 52 -5 51 22 52 72 3 40 -39
45 -41 69 -30 20 9 33 9 56 -1 30 -12 51 -8 51 11 0 5 -7 9 -16 9 -11 0 -14 8
-12 27 6 50 67 43 123 -13 19 -19 40 -32 45 -29 17 11 11 25 -15 37 -14 6 -25
17 -25 24 0 20 67 29 98 14 32 -16 69 -13 96 6 17 11 23 10 47 -6 15 -11 40
-20 57 -20z m-4418 -5 c18 -10 20 -14 8 -15 -23 0 -48 11 -48 21 0 12 11 11
40 -6z m7125 -35 c0 -36 -41 -55 -73 -34 -13 9 -33 14 -43 11 -22 -6 -36 10
-21 25 10 10 96 27 122 24 9 -1 15 -11 15 -26z m462 -16 c24 -51 -20 -62 -55
-15 -24 32 -20 41 17 41 18 0 30 -8 38 -26z m-3897 -27 c30 -15 45 -29 45 -41
0 -40 -94 -38 -109 1 -7 17 3 63 13 62 3 0 26 -10 51 -22z m-3970 -15 c-19
-10 -39 -16 -44 -14 -15 8 26 32 53 32 24 0 24 -1 -9 -18z m2645 8 c7 -11 -12
-113 -25 -139 -4 -9 -13 -27 -19 -41 -6 -14 -17 -34 -23 -45 -7 -11 -14 -22
-15 -24 -2 -2 -12 4 -23 14 -24 21 -26 48 -5 65 8 7 15 20 15 29 0 18 45 117
62 139 13 15 25 16 33 2z m6890 -24 c173 -3 252 -16 262 -44 3 -7 1 -18 -6
-25 -15 -15 -14 -50 2 -66 10 -10 -9 -12 -98 -8 -60 3 -122 8 -137 12 -25 7
-26 5 -25 -27 2 -27 -2 -34 -20 -36 -13 -2 -23 1 -23 7 0 25 -122 -7 -146 -37
-11 -15 -15 -14 -122 4 -38 6 -46 4 -72 -21 -16 -15 -34 -41 -41 -59 -7 -17
-42 -61 -78 -98 -36 -37 -76 -79 -88 -92 -26 -31 -69 -43 -94 -27 -10 6 -28
11 -40 11 -36 0 -76 51 -88 112 -7 31 -21 64 -31 73 -11 10 -20 28 -20 40 0
36 42 87 82 101 21 7 59 29 84 48 31 24 58 36 78 36 98 0 203 25 281 66 69 37
86 42 125 38 25 -3 122 -6 215 -8z m-1217 -33 c53 -34 60 -60 34 -115 -16 -30
-18 -46 -11 -60 5 -10 8 -50 7 -89 l-3 -72 -44 -33 c-26 -20 -55 -34 -72 -34
-32 0 -36 12 -14 50 16 28 19 50 7 50 -12 0 -50 -97 -60 -152 -14 -72 -42
-112 -83 -118 -28 -4 -34 -9 -34 -30 0 -23 3 -25 40 -22 81 5 85 1 85 -83 0
-41 -3 -75 -7 -75 -5 0 -18 -3 -30 -6 -20 -5 -23 -2 -23 20 0 54 -24 91 -68
104 -23 7 -46 21 -52 32 -15 27 -13 91 3 88 6 -2 12 4 12 12 0 8 -7 14 -17 12
-13 -2 -16 5 -14 33 3 30 0 35 -17 35 -30 0 -107 40 -107 55 0 24 19 65 31 65
9 0 27 -17 87 -82 36 -41 59 -8 74 107 7 54 7 94 1 112 -15 43 6 97 52 136 72
61 95 57 95 -15 0 -55 26 -51 35 5 13 87 16 97 34 97 9 0 36 -12 59 -27z
m-510 11 c12 -4 22 -11 22 -16 0 -10 -39 -1 -54 13 -12 11 -1 11 32 3z m-7798
-13 c0 -13 -26 -32 -33 -24 -8 7 11 33 24 33 5 0 9 -4 9 -9z m1982 -61 c15 0
107 -98 118 -126 11 -27 -3 -49 -22 -38 -26 15 -110 112 -130 150 -11 20 -16
44 -13 53 5 13 9 11 21 -11 8 -16 20 -28 26 -28z m1018 -2 c0 -34 -32 -98 -50
-98 -18 0 -80 -62 -80 -81 0 -10 -4 -19 -9 -19 -5 0 -16 -3 -25 -6 -48 -18 14
126 82 193 54 53 82 57 82 11z m5532 13 c19 -7 35 -28 54 -67 l27 -57 -17 -52
c-18 -50 -18 -51 5 -89 16 -27 23 -57 24 -102 2 -36 9 -74 17 -86 28 -43 29
-84 5 -115 -19 -24 -22 -39 -20 -105 2 -77 2 -78 -22 -78 -34 0 -32 -11 15
-72 40 -53 46 -78 23 -85 -13 -5 -54 34 -86 81 -15 21 -26 26 -62 26 -41 0
-45 2 -45 24 0 17 -9 27 -31 36 -28 12 -32 11 -57 -18 -38 -42 -73 -48 -100
-17 -18 21 -20 29 -11 49 9 20 7 29 -12 55 l-23 31 21 22 c19 19 25 20 66 9
25 -6 65 -8 90 -5 33 5 51 2 70 -11 40 -26 50 -16 51 48 1 69 -6 71 -87 21
-51 -32 -65 -36 -102 -31 -24 4 -59 14 -78 23 -30 15 -35 22 -40 63 -8 60 10
84 91 129 48 26 62 39 62 57 0 12 9 33 19 47 16 20 20 44 23 139 4 136 12 154
68 146 19 -3 47 -10 62 -16z m-762 -1 c0 -5 -2 -10 -4 -10 -3 0 -8 5 -11 10
-3 6 -1 10 4 10 6 0 11 -4 11 -10z m-5610 -67 c0 -27 2 -26 -39 -12 -37 13
-40 31 -8 52 20 14 23 14 35 -1 6 -9 12 -26 12 -39z m4314 34 c24 -20 25 -25
12 -36 -8 -7 -30 -11 -48 -9 -26 2 -34 8 -36 27 -7 43 31 53 72 18z m-434 -7
c0 -23 -9 -25 -45 -8 -35 16 -31 28 10 28 28 0 35 -4 35 -20z m-4553 -46 c6
-17 -40 -118 -60 -131 -23 -14 -99 -1 -152 27 l-56 30 33 20 c18 11 44 20 57
20 14 0 32 6 40 14 9 7 26 17 39 20 26 9 29 -6 7 -48 -18 -34 -18 -36 -4 -36
16 0 47 41 54 73 7 30 32 36 42 11z m4555 -28 c-5 -41 -12 -44 -38 -15 -19 21
-18 21 5 40 30 25 38 18 33 -25z m168 -42 c0 -26 5 -37 23 -43 12 -5 35 -22
50 -37 23 -21 28 -33 23 -55 -4 -22 -1 -29 14 -34 25 -8 40 1 40 24 0 27 11
33 35 17 12 -8 31 -16 44 -18 12 -1 21 -7 20 -13 0 -5 -6 -8 -12 -6 -41 13
-44 12 -57 -31 -8 -24 -17 -45 -21 -48 -4 -3 -40 -5 -80 -5 l-74 0 -17 38
c-16 32 -23 37 -51 37 -52 0 -77 41 -42 70 10 9 15 32 15 76 0 80 16 102 61
79 24 -13 29 -22 29 -51z m-3874 -9 c-2 -7 8 -25 23 -39 21 -20 27 -34 24 -54
-9 -53 -12 -56 -32 -38 -13 12 -21 36 -24 69 -2 29 -8 63 -12 77 -8 23 -7 24
9 11 9 -8 15 -20 12 -26z m5628 -3 c-7 -25 -22 -29 -30 -7 -7 18 16 49 27 38
5 -5 6 -18 3 -31z m-578 2 c18 -9 36 -24 39 -35 5 -14 16 -19 44 -19 31 0 42
-6 73 -43 20 -24 43 -60 51 -80 9 -19 24 -40 35 -46 22 -12 42 -60 42 -101 0
-15 10 -35 21 -46 12 -10 33 -36 46 -58 30 -46 25 -52 -59 -61 -61 -7 -102 7
-115 41 -9 24 4 28 47 14 22 -7 43 -10 47 -7 10 10 -28 47 -47 47 -25 0 -38
20 -42 65 -2 28 -7 39 -17 37 -32 -7 -61 8 -58 30 1 14 -5 24 -18 27 -38 12
-95 53 -95 69 0 10 7 26 15 36 23 31 19 56 -9 56 -26 0 -56 37 -56 70 0 24 11
25 56 4z m-1600 -15 c3 -6 2 -15 -2 -19 -12 -12 -38 5 -30 19 9 14 23 14 32 0z
m-296 -33 c0 -12 -11 -33 -25 -46 -14 -13 -25 -18 -25 -12 0 6 7 15 17 20 10
6 14 16 10 26 -8 20 2 48 14 40 5 -3 9 -15 9 -28z m-3462 -2 c12 -4 22 -12 22
-18 0 -6 18 -33 40 -60 43 -52 52 -86 21 -86 -37 0 -121 98 -121 141 0 31 2
32 38 23z m3872 -86 c17 -12 30 -30 30 -40 0 -22 -7 -22 -42 -4 -16 8 -28 11
-28 5 0 -5 5 -9 10 -9 6 0 10 -7 10 -15 0 -8 6 -24 12 -35 19 -30 -1 -56 -42
-52 -31 2 -60 -11 -60 -29 0 -5 6 -6 14 -3 32 12 24 -16 -9 -32 -28 -13 -38
-14 -50 -4 -8 7 -15 19 -15 26 0 20 -5 18 -39 -17 -33 -32 -41 -55 -16 -46 8
4 17 1 21 -5 5 -8 -6 -9 -36 -4 -75 12 -76 15 -10 85 28 29 50 59 50 66 0 8
10 22 23 32 12 10 27 28 33 38 6 11 27 25 47 30 20 6 42 16 49 23 15 15 14 16
48 -10z m-4816 6 c9 -3 16 -13 16 -21 0 -11 7 -13 24 -9 50 12 35 -15 -40 -74
-76 -60 -95 -69 -76 -33 6 10 13 41 17 68 10 68 23 83 59 69z m8598 -33 c58
-31 66 -32 130 -26 58 6 68 5 68 -9 0 -8 -8 -19 -17 -24 -26 -13 -240 -13
-295 0 -76 18 -172 -20 -166 -66 4 -29 -32 -35 -39 -7 -7 26 -2 26 -79 -1 -35
-12 -65 -20 -68 -17 -2 2 -7 27 -11 55 -10 79 18 94 163 85 28 -1 53 4 70 15
66 43 155 41 244 -5z m-4470 -33 c-11 -11 -52 6 -52 21 0 17 14 19 37 4 15
-10 21 -19 15 -25z m2077 27 c44 -1 57 -6 72 -26 10 -13 19 -31 19 -40 0 -11
13 -18 40 -23 46 -7 47 -12 21 -60 -22 -38 -17 -47 29 -61 33 -9 70 -33 70
-45 0 -22 -63 -42 -112 -36 -27 4 -48 3 -48 -3 0 -24 -97 -41 -174 -30 -39 5
-74 4 -102 -3 -48 -13 -59 -9 -50 19 6 18 111 68 186 89 14 4 34 13 45 20 11
8 29 14 42 14 12 0 25 5 28 10 4 6 -18 10 -57 10 -81 0 -103 14 -96 61 4 21 1
45 -8 59 -7 14 -13 33 -14 44 0 15 4 17 28 10 15 -4 51 -8 81 -9z m-6289 -5
c0 -12 -28 -25 -36 -17 -9 9 6 27 22 27 8 0 14 -5 14 -10z m4270 -49 c0 -5 -7
-14 -15 -21 -12 -10 -15 -10 -15 2 0 8 3 18 7 21 9 10 23 9 23 -2z m-2453 -47
c-3 -3 -12 -4 -19 -1 -8 3 -5 6 6 6 11 1 17 -2 13 -5z m283 -12 c0 -22 -67
-92 -89 -92 -9 0 -22 -9 -29 -20 -14 -22 -42 -26 -60 -8 -15 15 12 48 40 48
11 0 18 7 18 20 0 11 4 20 10 20 5 0 17 9 27 19 10 11 29 21 43 24 14 2 28 5
33 6 4 0 7 -7 7 -17z m3208 -8 c28 -19 28 -35 0 -60 -20 -18 -70 -44 -83 -44
-14 0 -1 49 21 82 30 43 32 44 62 22z m-2078 -18 c5 -13 12 -40 15 -60 6 -31
4 -37 -16 -44 -57 -22 -91 22 -69 88 10 32 18 40 37 40 16 0 27 -8 33 -24z
m-3481 -12 c12 -10 -25 -32 -59 -36 -33 -3 -40 0 -40 14 0 24 29 38 65 31 16
-3 32 -7 34 -9z m5395 -44 c9 -29 16 -36 44 -38 24 -2 32 -8 32 -22 0 -25 -44
-37 -67 -19 -9 8 -30 18 -46 24 -47 16 -56 39 -27 70 31 33 50 29 64 -15z
m-924 9 c-7 -11 -14 -18 -17 -15 -8 8 5 36 17 36 7 0 7 -6 0 -21z m1640 -4
c17 -20 6 -42 -30 -63 -16 -9 -30 -23 -30 -29 0 -7 -11 -20 -25 -29 -14 -9
-25 -22 -25 -29 0 -15 -22 -25 -58 -25 -44 0 -71 -11 -77 -31 -4 -10 -14 -19
-23 -19 -10 0 -26 -6 -37 -14 -21 -14 -118 -46 -142 -46 -21 0 -15 15 27 66
22 27 40 53 40 59 0 21 126 110 199 141 84 36 161 44 181 19z m-5064 -11 c18
-14 18 -15 -6 -8 -31 8 -50 24 -29 24 8 0 24 -7 35 -16z m7522 -26 c108 -47
142 -66 142 -79 0 -19 46 -79 60 -79 9 0 25 7 36 15 12 8 24 11 28 8 11 -12 6
-50 -9 -63 -8 -7 -15 -23 -15 -36 0 -15 -6 -24 -15 -24 -21 0 -86 -61 -115
-109 -18 -29 -31 -40 -45 -39 -16 3 -20 11 -20 43 0 24 -11 60 -27 92 -16 29
-28 57 -28 63 0 24 32 7 58 -30 15 -21 32 -39 38 -40 6 0 23 18 38 40 19 28
22 40 12 40 -8 0 -16 14 -20 34 -7 35 -20 46 -132 113 -28 17 -68 36 -88 43
-46 15 -48 45 -3 49 5 1 52 -18 105 -41z m-7883 -34 c9 -9 14 -19 11 -22 -8
-7 -96 19 -96 29 0 16 68 10 85 -7z m7598 -13 c17 -7 27 -18 27 -31 0 -15 12
-26 45 -40 32 -14 45 -25 45 -40 0 -26 -40 -27 -112 -1 -29 10 -71 22 -93 27
-48 11 -56 37 -24 78 23 30 49 31 112 7z m-7373 -41 c8 -5 11 -12 8 -16 -10
-9 -58 4 -58 16 0 13 30 13 50 0z m806 -16 c-3 -9 -6 -25 -6 -37 -1 -20 -2
-20 -11 -4 -11 20 -3 57 13 57 5 0 7 -7 4 -16z m3894 12 c0 -2 -9 -6 -20 -9
-11 -3 -18 -1 -14 4 5 9 34 13 34 5z m-127 -13 c-7 -2 -19 -2 -25 0 -7 3 -2 5
12 5 14 0 19 -2 13 -5z m-645 -29 c7 -13 13 -14 31 -4 17 9 26 9 37 -1 22 -18
17 -29 -16 -29 -17 0 -42 -7 -56 -17 -24 -15 -25 -15 -30 5 -3 11 -14 22 -25
25 -13 3 -17 11 -13 21 8 21 60 21 72 0z m1299 -11 c16 -6 16 -13 3 -47 -7
-18 -21 -28 -52 -36 -24 -6 -55 -17 -70 -25 -37 -21 -98 -17 -98 6 0 13 69
107 83 113 13 6 111 -2 134 -11z m813 -6 c41 -14 65 -27 65 -37 0 -24 -65 -49
-130 -51 -89 -2 -203 5 -211 14 -4 4 -18 7 -31 7 -14 0 -31 7 -39 15 -9 8 -26
15 -39 15 -35 0 -40 18 -8 26 15 3 40 11 54 17 14 7 82 13 150 14 106 2 134
-1 189 -20z m2150 -58 c-41 -23 -102 -59 -134 -80 -59 -39 -103 -47 -75 -13
38 47 200 133 249 134 33 0 32 -2 -40 -41z m-3667 14 c11 -10 -13 -33 -35 -33
-10 0 -46 -14 -80 -31 -62 -31 -168 -51 -168 -31 0 5 21 24 46 40 38 26 49 29
69 20 31 -14 92 -2 113 23 16 19 43 25 55 12z m2892 -23 c7 -11 -16 -11 -60 0
-28 7 -28 8 12 9 23 0 45 -3 48 -9z m1015 -7 c0 -14 -21 -25 -88 -45 -48 -15
-96 -29 -107 -31 -11 -3 -29 -8 -40 -13 -11 -4 -4 6 16 24 20 18 47 32 60 32
13 0 49 11 79 24 68 29 80 31 80 9z m-6911 -19 c7 -6 -2 -12 -30 -19 -18 -4
-32 0 -50 15 l-24 21 50 -6 c28 -4 52 -9 54 -11z m3931 -64 c30 -10 56 -25 58
-33 4 -19 -35 -47 -65 -47 -12 0 -25 -4 -28 -10 -3 -5 -20 -10 -38 -10 -18 0
-43 0 -57 -1 -30 -2 -129 11 -150 18 -15 6 -27 8 -64 11 -17 2 -17 4 -4 24 9
13 45 33 94 50 90 31 157 31 254 -2z m-802 -38 c2 -53 -14 -132 -27 -132 -3 0
-7 32 -9 72 -3 81 -6 88 -33 88 -26 0 -24 18 4 23 61 12 62 11 65 -51z m2190
39 c15 -10 37 -21 49 -25 26 -8 40 -43 24 -59 -8 -8 -30 -4 -78 13 -79 27 -93
36 -93 60 0 34 58 40 98 11z m-7038 -1 l25 -1 -25 -10 c-14 -6 -48 -12 -75
-14 -28 -1 -72 -10 -98 -19 -52 -18 -137 -22 -137 -6 0 19 213 63 265 54 11
-2 31 -4 45 -4z m5993 -1 c40 -6 89 -20 110 -31 28 -14 42 -16 51 -9 14 12 99
-10 126 -32 34 -28 70 -87 70 -116 0 -39 -10 -44 -62 -27 -24 8 -67 17 -96 20
-29 4 -65 12 -80 19 -53 23 -192 119 -192 133 0 7 -13 20 -30 29 -16 9 -30 18
-30 20 0 8 58 6 133 -6z m-784 -33 c47 -25 56 -42 32 -63 -55 -50 -112 -93
-123 -93 -4 0 -8 7 -8 15 0 9 -9 15 -21 15 -19 0 -20 4 -15 33 4 17 8 43 9 56
1 18 11 28 37 37 46 17 56 17 89 0z m2251 -26 c78 -39 93 -53 68 -62 -17 -6
-198 78 -198 92 0 21 53 9 130 -30z m-183 18 c5 -7 26 -50 48 -95 37 -80 41
-109 11 -84 -25 21 -96 146 -96 169 0 24 22 30 37 10z m1053 -13 c-13 -14 -28
-25 -34 -25 -6 1 3 12 19 25 39 32 45 32 15 0z m-3568 -25 c5 -30 -3 -46 -16
-33 -9 10 -7 63 3 63 5 0 11 -14 13 -30z m2162 -6 c36 -14 0 -24 -84 -24 -90
0 -120 5 -120 21 0 10 179 13 204 3z m-478 -39 c10 -8 36 -15 57 -15 41 0 107
-26 107 -41 0 -5 -21 -8 -47 -7 -27 0 -65 -4 -85 -9 -31 -9 -41 -8 -67 11 -32
22 -39 44 -19 64 16 16 30 15 54 -3z m-1755 -113 c39 -25 82 -80 75 -97 -8
-23 -37 -18 -106 18 -66 33 -108 76 -95 97 10 16 91 4 126 -18z m1879 -19 c0
-3 -14 -18 -31 -32 l-30 -26 16 -38 c14 -35 18 -38 45 -32 27 6 30 4 30 -19 0
-26 0 -26 -36 -11 -20 8 -38 15 -39 15 -2 0 -10 19 -19 41 l-17 42 32 33 c31
32 49 42 49 27z m-2048 -34 c34 -22 48 -38 50 -55 0 -13 1 -30 2 -36 2 -24
-31 -18 -61 11 -17 16 -44 32 -61 36 -35 7 -50 38 -32 60 19 23 49 18 102 -16z
m2224 3 c-4 -3 -14 2 -24 12 -16 18 -16 18 6 6 13 -6 21 -14 18 -18z m154 8
c0 -5 -6 -10 -14 -10 -8 0 -18 5 -21 10 -3 6 3 10 14 10 12 0 21 -4 21 -10z
m-1095 -70 c3 -5 1 -10 -4 -10 -6 0 -11 5 -11 10 0 6 2 10 4 10 3 0 8 -4 11
-10z m616 -27 c13 -16 12 -17 -3 -4 -10 7 -18 15 -18 17 0 8 8 3 21 -13z
m-1221 -13 c0 -5 -9 -10 -19 -10 -11 0 -23 5 -26 10 -4 6 5 10 19 10 14 0 26
-4 26 -10z m-3731 -26 c24 -5 31 -12 31 -31 0 -30 -21 -38 -60 -24 -64 22 -79
-13 -29 -65 18 -18 28 -37 24 -44 -8 -13 -61 -4 -90 16 -25 18 -115 20 -97 2
35 -35 -11 -75 -72 -64 -59 11 -58 76 1 76 14 0 21 4 18 10 -3 6 -15 10 -26
10 -36 0 -35 31 3 66 29 26 47 34 94 39 33 4 64 8 69 10 17 6 101 5 134 -1z
m2750 -28 c24 -29 -37 -44 -123 -29 l-39 6 24 18 c30 23 121 26 138 5z m1261
-16 c8 -5 11 -12 7 -16 -4 -4 -15 0 -24 9 -18 18 -8 23 17 7z m-4522 -132 c-4
-27 -28 -36 -28 -10 0 20 8 32 22 32 5 0 8 -10 6 -22z m406 -39 c14 -11 24
-25 21 -30 -9 -14 -69 -11 -89 4 -17 13 -17 14 -1 30 22 22 37 21 69 -4z
m3790 -9 c16 -6 26 -17 26 -30 0 -11 9 -29 21 -41 18 -18 29 -20 78 -15 l56 7
-24 -21 c-13 -11 -35 -23 -50 -27 -14 -3 -31 -13 -37 -22 -10 -13 -14 -13 -30
-1 -9 8 -26 34 -36 58 -11 23 -31 50 -45 59 -24 16 -24 17 -7 30 21 16 17 15
48 3z m181 1 c3 -5 19 -12 35 -16 37 -8 39 -25 3 -25 -26 0 -63 25 -63 42 0
11 17 10 25 -1z m-1175 -76 c-7 -9 -15 -13 -17 -11 -7 7 7 26 19 26 6 0 6 -6
-2 -15z m-4550 -30 c0 -17 -2 -18 -24 -9 -23 9 -20 24 4 24 11 0 20 -7 20 -15z
m4999 -37 c0 -28 -2 -30 -9 -13 -12 28 -12 45 0 45 6 0 10 -15 9 -32z m-4871
-51 c23 -18 -9 -27 -39 -11 -16 8 -35 14 -44 14 -8 0 -15 5 -15 11 0 13 78 2
98 -14z m1300 -84 c-11 -22 -20 -28 -43 -26 -17 2 -42 4 -57 5 -32 2 -36 15
-10 34 16 13 16 15 -2 29 -29 22 -10 33 59 37 59 3 60 2 63 -24 2 -15 -3 -40
-10 -55z m-1533 67 c-3 -5 -10 -10 -16 -10 -5 0 -9 5 -9 10 0 6 7 10 16 10 8
0 12 -4 9 -10z m-27 -40 c9 -5 43 -12 74 -15 32 -4 60 -10 63 -15 7 -11 -57
-40 -89 -40 -15 0 -30 8 -36 20 -8 15 -17 19 -35 14 -39 -10 -58 2 -45 26 11
21 40 26 68 10z m1417 0 c-3 -5 -11 -10 -16 -10 -6 0 -7 5 -4 10 3 6 11 10 16
10 6 0 7 -4 4 -10z m933 -63 c12 -11 22 -26 22 -33 0 -8 12 -20 28 -28 21 -11
30 -26 39 -67 14 -59 6 -79 -33 -79 -13 0 -44 -6 -70 -12 -41 -11 -47 -11 -55
5 -6 10 -22 17 -42 17 -35 0 -94 32 -103 55 -4 8 -26 24 -50 34 -33 15 -42 24
-37 37 5 13 15 15 49 11 52 -5 62 2 33 24 -12 9 -19 21 -15 28 10 16 41 14 56
-4 17 -21 33 -19 61 9 41 39 75 40 117 3z m581 24 c21 -13 6 -61 -20 -61 -25
0 -34 22 -19 49 12 23 18 25 39 12z m-1169 -36 c0 -3 -5 -14 -12 -24 -9 -15
-9 -25 0 -46 28 -60 5 -71 -65 -30 -50 30 -58 64 -21 89 21 15 98 23 98 11z
m-1318 -37 c-9 -9 -15 -9 -24 0 -9 9 -7 12 12 12 19 0 21 -3 12 -12z m1522 -7
c14 -15 15 -24 7 -40 -6 -11 -11 -28 -11 -39 0 -33 -37 -71 -65 -67 -14 1 -27
4 -28 6 -1 2 -10 13 -20 25 -16 19 -16 23 -1 60 9 21 23 47 32 57 20 23 65 22
86 -2z m-144 -1 c0 -5 -7 -10 -15 -10 -8 0 -15 5 -15 10 0 6 7 10 15 10 8 0
15 -4 15 -10z m-1147 -27 c45 -14 89 -32 97 -40 12 -11 7 -13 -34 -13 -39 0
-52 5 -68 25 -14 18 -29 25 -53 25 -33 0 -51 11 -38 24 9 8 3 9 96 -21z m737
-75 c0 -7 3 -24 6 -38 4 -18 3 -21 -4 -10 -17 27 -24 60 -13 60 6 0 11 -6 11
-12z m113 -12 c16 -13 16 -15 -4 -40 -23 -29 -55 -36 -45 -10 3 9 9 27 12 40
7 27 12 29 37 10z"></path>
<path d="M8672 7634 c-12 -8 -22 -25 -22 -38 0 -12 -5 -27 -11 -33 -20 -20 83
-2 136 24 l50 24 -40 -5 c-22 -2 -47 -5 -55 -7 -10 -3 -16 5 -18 24 -4 31 -9
33 -40 11z"></path>
<path d="M8764 7265 c-37 -22 -53 -25 -150 -25 -60 0 -138 4 -174 10 -36 5
-69 10 -75 9 -18 0 69 -38 88 -39 23 0 56 -17 84 -42 19 -18 35 -20 122 -20
115 1 148 13 181 67 18 29 20 38 10 50 -17 21 -39 19 -86 -10z"></path>
<path d="M8916 7226 c-33 -44 -33 -69 0 -87 23 -12 27 -12 40 6 17 23 15 106
-2 112 -6 2 -23 -12 -38 -31z"></path>
<path d="M8566 7015 c-3 -9 0 -15 9 -15 8 0 15 7 15 15 0 8 -4 15 -9 15 -5 0
-11 -7 -15 -15z"></path>
<path d="M8337 6724 c-15 -15 -6 -24 24 -24 20 0 29 4 27 13 -5 14 -40 21 -51
11z"></path>
<path d="M6940 7690 c0 -5 5 -10 10 -10 6 0 10 5 10 10 0 6 -4 10 -10 10 -5 0
-10 -4 -10 -10z"></path>
<path d="M6930 7416 c0 -11 9 -16 26 -16 31 0 28 23 -4 28 -15 2 -22 -2 -22
-12z"></path>
<path d="M6020 7350 c0 -5 5 -10 10 -10 6 0 10 5 10 10 0 6 -4 10 -10 10 -5 0
-10 -4 -10 -10z"></path>
<path d="M6380 7261 c0 -10 25 -21 48 -21 12 1 10 5 -8 15 -29 17 -40 18 -40
6z"></path>
<path d="M6732 7129 c5 -15 96 -49 132 -49 23 0 26 2 17 14 -25 30 -158 61
-149 35z"></path>
<path d="M6500 4855 c-6 -7 -8 -20 -4 -28 3 -9 -3 -23 -15 -33 -20 -18 -20
-18 17 -40 33 -20 46 -22 118 -17 77 6 196 -14 229 -37 6 -4 43 -20 84 -34 53
-19 77 -24 86 -16 16 13 217 18 265 6 54 -13 25 10 -40 33 -52 17 -55 20 -52
50 3 44 -30 43 -43 -1 -9 -29 -17 -35 -68 -51 -61 -20 -88 -18 -122 6 -17 13
-18 17 -5 32 13 15 12 19 -8 35 -12 10 -26 30 -32 44 -13 34 -26 33 -33 -4 -8
-37 0 -60 27 -83 21 -17 20 -18 -19 -11 -62 10 -95 31 -95 59 0 32 -15 40 -42
21 -31 -22 -51 -20 -82 9 -15 14 -39 25 -55 25 -15 0 -36 9 -45 19 -23 25 -53
32 -66 16z"></path>
<path d="M7058 4743 c7 -3 16 -2 19 1 4 3 -2 6 -13 5 -11 0 -14 -3 -6 -6z"></path>
<path d="M6105 4440 c-3 -5 -1 -10 4 -10 6 0 11 5 11 10 0 6 -2 10 -4 10 -3 0
-8 -4 -11 -10z"></path>
<path d="M6257 4420 c-4 -17 0 -20 25 -20 30 0 31 0 13 20 -10 11 -21 20 -25
20 -4 0 -10 -9 -13 -20z"></path>
<path d="M6162 4417 c29 -23 26 -51 -5 -57 l-29 -5 21 -26 c11 -14 42 -34 68
-44 26 -10 60 -29 75 -42 27 -26 63 -28 63 -3 0 8 -18 24 -40 37 -31 17 -44
32 -57 70 -13 39 -22 49 -47 55 -16 5 -33 13 -36 18 -3 6 -12 10 -18 10 -7 -1
-5 -6 5 -13z"></path>
<path d="M6075 4409 c-7 -10 21 -38 38 -39 11 0 8 25 -5 38 -15 15 -25 15 -33
1z"></path>
<path d="M7235 4330 c-4 -6 14 -10 47 -9 45 1 49 3 23 9 -44 11 -63 11 -70 0z"></path>
<path d="M4998 4403 c-10 -2 -18 -8 -18 -13 0 -13 34 -30 58 -30 18 0 19 3 9
25 -12 25 -17 27 -49 18z"></path>
<path d="M3750 4349 c0 -11 5 -17 10 -14 6 3 10 13 10 21 0 8 -4 14 -10 14 -5
0 -10 -9 -10 -21z"></path>
<path d="M1256 3815 l-30 -13 33 -7 c34 -7 58 5 47 24 -9 13 -13 13 -50 -4z"></path>
<path d="M5678 3159 c-29 -16 -21 -29 18 -29 28 0 35 3 32 17 -4 21 -26 27
-50 12z"></path>
<path d="M5363 2953 c9 -9 19 -14 23 -11 10 10 -6 28 -24 28 -15 0 -15 -1 1
-17z"></path>
<path d="M5090 2744 c0 -14 4 -23 10 -19 6 3 10 15 10 26 0 10 -4 19 -10 19
-5 0 -10 -12 -10 -26z"></path>
<path d="M8326 3591 c-7 -11 22 -23 36 -15 6 4 5 10 -3 15 -18 11 -26 11 -33
0z"></path>
<path d="M7645 3280 c-4 -6 5 -10 20 -10 15 0 24 4 20 10 -3 6 -12 10 -20 10
-8 0 -17 -4 -20 -10z"></path>
<path d="M7610 3230 c-12 -7 -12 -12 -2 -22 9 -9 15 -9 24 0 16 16 -2 34 -22
22z"></path>
<path d="M8527 2993 c-14 -13 -7 -33 11 -33 19 0 42 18 42 32 0 10 -44 11 -53
1z"></path>
<path d="M4460 2731 c0 -11 31 -24 39 -16 3 3 -1 10 -9 15 -19 12 -30 12 -30
1z"></path>
<path d="M4410 2681 c-7 -15 -7 -21 0 -21 12 0 25 28 17 36 -3 3 -10 -4 -17
-15z"></path>
<path d="M9600 2675 c-15 -18 -6 -45 14 -45 22 0 38 34 24 48 -16 16 -23 15
-38 -3z"></path>
<path d="M8535 2280 c-4 -7 -3 -16 3 -22 14 -14 47 -6 47 12 0 18 -40 26 -50
10z"></path>
<path d="M8444 2169 c-10 -17 13 -36 27 -22 12 12 4 33 -11 33 -5 0 -12 -5
-16 -11z"></path>
<path d="M7381 2261 c-19 -12 -4 -50 25 -61 17 -7 31 -6 44 3 27 16 25 24 -12
47 -37 23 -38 23 -57 11z"></path>
<path d="M7320 2020 c0 -5 5 -10 11 -10 5 0 7 5 4 10 -3 6 -8 10 -11 10 -2 0
-4 -4 -4 -10z"></path>
<path d="M7706 1651 c11 -10 72 -31 90 -31 8 0 14 5 14 10 0 6 -9 10 -19 10
-11 0 -23 5 -26 10 -3 6 -20 10 -38 10 -18 0 -27 -4 -21 -9z"></path>
<path d="M3277 804 c-13 -13 5 -24 39 -24 24 0 34 5 34 15 0 10 -10 15 -33 15
-19 0 -37 -3 -40 -6z"></path>
<path d="M9580 10231 c0 -15 -150 -233 -194 -282 -23 -26 -88 -110 -145 -188
-56 -77 -107 -141 -111 -141 -5 0 -12 5 -15 11 -10 14 -38 -13 -91 -87 -27
-38 -42 -68 -38 -77 8 -21 -214 -354 -272 -407 -24 -22 -48 -40 -54 -40 -25 0
-6 -28 35 -50 36 -20 45 -30 45 -51 0 -29 14 -45 44 -51 15 -2 21 5 28 32 6
19 31 59 57 90 26 30 58 71 71 90 14 19 52 68 86 108 34 40 88 111 119 158 31
47 85 120 119 162 34 42 95 124 136 181 41 58 99 137 127 175 29 39 65 89 79
111 15 22 41 60 57 85 17 25 57 75 89 113 l60 67 -116 0 c-64 0 -116 -4 -116
-9z m-88 -348 c-35 -44 -72 -79 -72 -69 0 15 75 105 88 106 8 0 2 -15 -16 -37z
m-118 -145 c-4 -7 -17 -26 -29 -43 -12 -16 -25 -40 -29 -52 -4 -12 -23 -39
-42 -60 -19 -21 -49 -53 -66 -72 -38 -41 -52 -25 -18 21 12 16 34 48 50 71 46
67 162 183 134 135z m-285 -400 c-13 -46 -68 -123 -101 -143 -16 -9 -37 -33
-47 -53 -24 -47 -101 -123 -101 -100 0 9 18 38 39 66 21 27 49 69 61 93 41 79
116 163 152 168 4 1 2 -13 -3 -31z"></path>
<path d="M7830 8700 c-13 -8 -12 -10 3 -10 9 0 17 5 17 10 0 12 -1 12 -20 0z"></path>
<path d="M8760 8690 c12 -22 30 -18 30 6 0 8 -9 14 -20 14 -18 0 -19 -3 -10
-20z"></path>
<path d="M5115 8600 c45 -12 97 -12 90 0 -3 6 -32 9 -63 9 -47 -1 -52 -3 -27
-9z"></path>
<path d="M7310 8600 c-12 -8 -11 -10 7 -10 12 0 25 5 28 10 8 13 -15 13 -35 0z"></path>
<path d="M5650 8550 c0 -13 10 -24 26 -30 14 -6 52 -25 83 -44 40 -23 76 -35
121 -40 55 -6 62 -5 52 7 -7 8 -40 25 -75 37 -34 12 -92 38 -129 56 -37 19
-70 34 -73 34 -3 0 -5 -9 -5 -20z"></path>
<path d="M5280 8549 c0 -4 9 -11 20 -14 23 -7 44 -41 36 -60 -6 -16 29 -49 43
-41 7 5 7 15 -1 31 -8 19 -8 32 1 51 6 15 10 28 9 29 -8 7 -108 11 -108 4z"></path>
<path d="M6950 8540 c-24 -8 -23 -8 8 -9 20 -1 31 3 27 9 -3 6 -7 10 -8 9 -1
-1 -13 -5 -27 -9z"></path>
<path d="M7058 8533 c6 -2 18 -2 25 0 6 3 1 5 -13 5 -14 0 -19 -2 -12 -5z"></path>
<path d="M6866 8513 c-15 -15 -4 -33 19 -33 14 0 25 4 25 10 0 12 -35 31 -44
23z"></path>
<path d="M5601 8466 c-15 -18 -7 -81 11 -92 6 -4 36 -8 67 -9 31 0 73 -7 93
-15 31 -11 40 -12 50 -1 11 10 7 18 -20 42 -18 16 -43 29 -56 29 -13 0 -35 11
-51 25 -35 33 -77 42 -94 21z"></path>
<path d="M6000 8471 c0 -5 5 -13 10 -16 6 -3 10 -2 10 4 0 5 -4 13 -10 16 -5
3 -10 2 -10 -4z"></path>
<path d="M5021 8466 c2 -2 40 -19 84 -36 90 -36 108 -48 101 -67 -7 -18 40
-28 70 -14 13 6 24 15 24 21 0 17 -60 49 -143 75 -67 21 -149 34 -136 21z"></path>
<path d="M6015 8403 c-15 -11 -37 -14 -92 -10 -66 5 -73 4 -73 -13 0 -21 20
-28 113 -36 37 -4 67 -9 67 -12 0 -3 -6 -13 -14 -21 -8 -10 -12 -29 -9 -48 4
-27 10 -33 29 -33 28 0 28 1 11 112 -12 74 -13 76 -32 61z"></path>
<path d="M7816 8343 c-11 -11 -6 -23 8 -23 8 0 17 4 20 9 7 10 -19 23 -28 14z"></path>
<path d="M7495 8318 c-9 -23 -2 -61 13 -66 14 -4 15 31 2 63 -7 18 -9 18 -15
3z"></path>
<path d="M4943 8302 c-50 -3 -69 -14 -40 -24 24 -9 189 0 200 11 6 6 7 12 2
12 -21 4 -112 4 -162 1z"></path>
<path d="M4400 8248 c-71 -22 -90 -33 -90 -54 0 -10 7 -13 24 -8 13 3 26 1 29
-4 10 -15 -16 -83 -35 -93 -89 -48 144 -36 350 18 84 21 108 24 123 15 10 -7
30 -12 44 -12 46 0 25 -18 -47 -40 -43 -13 -86 -20 -107 -17 -22 3 -82 -7
-154 -25 -101 -26 -125 -28 -160 -20 -22 6 -45 8 -50 5 -4 -3 -5 -35 -1 -71 5
-52 14 -75 41 -114 21 -29 43 -48 54 -48 11 0 30 -7 44 -16 22 -14 26 -14 50
2 21 14 31 15 51 5 14 -6 33 -11 42 -11 13 1 10 6 -10 21 -41 30 -35 42 15 33
23 -4 72 -6 109 -5 40 1 75 -3 87 -11 11 -7 24 -9 28 -5 4 5 1 12 -6 17 -11 6
-10 9 5 12 10 2 -7 4 -38 4 -31 0 -60 3 -64 6 -14 15 10 28 51 28 25 0 58 8
77 19 18 10 58 24 88 31 46 10 159 56 280 115 14 7 47 18 73 25 32 9 46 17 43
26 -3 7 -1 16 4 19 6 4 10 17 10 30 0 18 12 31 45 51 42 24 75 58 75 76 0 14
-74 8 -128 -11 -31 -11 -70 -35 -93 -57 -42 -41 -50 -40 -22 3 l17 26 -27 -5
c-32 -6 -37 15 -10 44 20 23 1 24 -37 3 -14 -8 -42 -14 -62 -15 -21 0 -60 -9
-88 -20 -42 -17 -50 -17 -50 -5 0 12 -14 15 -63 15 -35 0 -99 9 -142 20 -109
28 -284 27 -375 -2z m838 -194 c-9 -9 -21 -13 -27 -10 -20 13 -11 26 16 26 25
0 26 -1 11 -16z m-390 -36 c-6 -16 -40 -33 -93 -46 -122 -31 -225 -52 -253
-52 -28 0 -92 24 -92 34 0 2 20 1 45 -2 42 -4 72 2 295 66 52 15 103 15 98 0z
m118 -40 c-1 -30 -5 -33 -35 -36 -18 -2 -40 -1 -48 2 -25 10 3 34 33 28 20 -3
26 0 31 17 8 32 21 25 19 -11z m-246 -47 c0 -11 -30 -19 -48 -14 -6 3 -10 9
-6 14 7 12 54 12 54 0z m-262 -31 c7 0 10 -4 7 -10 -10 -16 -41 -12 -56 7 -13
15 -11 16 11 10 14 -4 31 -7 38 -7z"></path>
<path d="M5527 8253 c-4 -3 -7 -15 -7 -25 0 -20 13 -16 55 16 19 15 19 15 -11
16 -17 0 -34 -3 -37 -7z"></path>
<path d="M7726 8197 c8 -28 11 -30 23 -22 19 11 12 41 -9 42 -17 2 -20 -2 -14
-20z"></path>
<path d="M7500 8175 c0 -8 5 -15 10 -15 6 0 10 7 10 15 0 8 -4 15 -10 15 -5 0
-10 -7 -10 -15z"></path>
<path d="M7410 8066 c0 -8 5 -18 10 -21 22 -14 9 -27 -20 -21 -16 3 -30 3 -30
0 0 -14 65 -80 89 -91 52 -24 59 -18 50 38 -7 46 -26 80 -54 101 -17 13 -45 9
-45 -6z"></path>
<path d="M9256 6848 c-22 -30 -20 -44 6 -62 20 -14 68 -23 68 -12 0 6 -52 96
-55 96 -2 0 -11 -10 -19 -22z"></path>
<path d="M8298 6144 c-45 -44 -58 -64 -40 -64 8 0 66 59 91 93 26 33 -4 17
-51 -29z"></path>
<path d="M8084 5923 c-15 -49 -41 -100 -61 -122 -39 -41 -26 -53 26 -27 30 16
81 86 81 111 0 22 -18 55 -31 55 -5 0 -12 -8 -15 -17z"></path>
<path d="M3044 5333 c-3 -12 -14 -23 -25 -26 -25 -7 -24 -27 1 -27 11 0 20 6
20 13 0 8 9 18 21 23 19 9 20 11 5 24 -15 12 -18 11 -22 -7z"></path>
<path d="M2814 5239 c-3 -6 -1 -16 5 -22 9 -9 14 -8 21 3 9 15 4 30 -10 30 -5
0 -12 -5 -16 -11z"></path>
<path d="M2929 5223 c-5 -17 -32 -49 -58 -72 -42 -35 -53 -39 -84 -34 -19 3
-37 1 -41 -5 -8 -13 71 -30 113 -24 41 6 40 -13 -1 -34 -54 -28 -138 -6 -138
36 0 33 -47 33 -130 3 -8 -3 -27 -5 -42 -4 -14 1 -29 -2 -32 -8 -14 -21 17
-52 78 -80 35 -16 68 -37 74 -46 6 -13 29 -21 73 -27 35 -4 68 -13 73 -18 7
-7 -1 -32 -23 -75 -24 -48 -39 -67 -58 -72 l-26 -6 22 -18 c19 -16 26 -16 59
-5 23 8 38 20 40 32 2 11 27 46 56 79 l53 59 42 -14 c23 -7 50 -19 59 -26 16
-12 16 -13 -3 -19 -40 -12 -108 -50 -108 -60 1 -5 -3 -18 -8 -27 -7 -13 -4
-20 10 -28 33 -17 53 -11 90 28 78 82 108 98 209 110 54 6 108 19 130 31 48
26 88 32 251 38 152 5 240 -6 316 -43 60 -28 156 -35 121 -9 -11 8 -26 15 -34
15 -7 0 -45 20 -83 45 -49 31 -80 45 -105 45 -28 0 -36 5 -44 25 -11 29 -17
30 -70 9 -34 -14 -43 -14 -57 -3 -9 8 -37 14 -61 14 -27 0 -47 5 -49 13 -3 6
2 12 11 12 20 0 29 16 21 40 -8 26 -43 26 -71 -1 -22 -21 -23 -21 -96 -4 -93
22 -104 28 -100 53 4 26 -12 36 -38 22 -14 -7 -26 -8 -39 0 -13 6 -28 7 -45 1
-39 -15 -106 15 -113 51 -6 31 -19 35 -47 13 -26 -19 -45 -19 -68 2 -17 15
-19 14 -29 -14z m65 -52 c7 -10 -33 -23 -46 -15 -5 3 -6 10 -3 15 8 12 42 12
49 0z"></path>
<path d="M4273 5034 c-10 -27 14 -40 37 -19 11 10 20 22 20 27 0 15 -50 8 -57
-8z"></path>
<path d="M9575 5021 c12 -39 -8 -43 -274 -55 -106 -5 -123 -14 -91 -46 12 -12
19 -28 16 -37 -3 -8 -6 -21 -6 -29 0 -8 -7 -14 -15 -14 -8 0 -15 8 -15 19 0
10 -10 30 -21 45 -12 15 -19 30 -15 33 3 3 1 12 -5 20 -16 19 -119 17 -147 -3
-25 -17 -29 -44 -7 -44 22 0 48 -45 40 -71 -7 -22 -6 -22 81 -16 68 4 93 2
111 -10 18 -12 44 -14 125 -9 57 3 118 5 137 5 38 0 91 -24 91 -41 0 -14 -180
-4 -415 23 -268 31 -295 33 -295 21 0 -16 34 -32 69 -32 41 0 46 -14 28 -74
-9 -28 -20 -85 -24 -126 l-8 -75 -44 -3 c-25 -2 -47 2 -51 8 -4 7 -15 4 -32
-9 -14 -11 -46 -26 -72 -33 -25 -7 -46 -15 -46 -19 0 -8 212 -19 223 -12 15 9
98 9 104 0 6 -10 63 1 78 14 6 6 -1 18 -19 33 -29 23 -29 23 -16 69 11 43 51
97 71 97 4 0 21 11 37 25 25 21 34 24 57 15 14 -5 44 -10 65 -10 44 0 67 -18
75 -58 3 -15 10 -48 16 -74 6 -26 8 -62 4 -79 -8 -37 5 -50 44 -40 30 8 30 7
12 83 -11 46 -12 66 -2 98 6 22 16 40 20 40 5 0 12 -21 16 -47 4 -27 10 -52
13 -58 4 -5 7 -32 7 -60 0 -46 2 -50 26 -53 43 -5 53 19 33 75 -27 75 -13 168
33 227 20 25 39 46 44 46 10 0 39 -54 39 -73 0 -38 75 -63 100 -32 14 17 5 36
-14 29 -17 -7 -40 22 -32 41 3 8 16 15 29 15 13 0 28 5 35 12 15 15 16 95 1
153 -9 36 -8 47 6 69 24 36 11 45 -20 16 -22 -21 -29 -22 -46 -12 -12 8 -33
10 -55 6 -28 -5 -42 -2 -64 15 -36 26 -43 26 -35 2z"></path>
<path d="M9957 4999 c-7 -26 11 -33 48 -19 31 12 25 24 -16 34 -21 5 -28 2
-32 -15z"></path>
<path d="M2435 4981 c-6 -11 9 -23 19 -14 9 9 7 23 -3 23 -6 0 -12 -4 -16 -9z"></path>
<path d="M10075 4916 c-9 -43 -40 -75 -57 -58 -18 18 -28 15 -28 -8 0 -11 6
-20 14 -20 9 0 20 -19 28 -47 11 -40 18 -49 39 -51 24 -3 25 -1 25 44 -1 47 5
55 48 68 17 6 16 8 -8 31 -14 13 -26 30 -26 38 0 8 -6 20 -14 27 -12 9 -16 6
-21 -24z"></path>
<path d="M2230 4909 c0 -5 5 -7 10 -4 6 3 10 8 10 11 0 2 -4 4 -10 4 -5 0 -10
-5 -10 -11z"></path>
<path d="M8648 4899 c-10 -6 -18 -14 -18 -19 0 -14 37 -12 46 1 10 17 -9 29
-28 18z"></path>
<path d="M2195 4869 c-4 -6 -5 -13 -2 -16 7 -7 27 6 27 18 0 12 -17 12 -25 -2z"></path>
<path d="M320 4845 c-9 -11 -8 -20 10 -45 12 -17 34 -37 48 -44 15 -8 45 -33
67 -55 42 -44 66 -55 41 -19 -9 12 -16 29 -16 38 0 15 -116 140 -130 140 -4 0
-13 -7 -20 -15z"></path>
<path d="M8221 4847 c-7 -10 -9 -22 -4 -31 7 -12 94 -79 145 -111 9 -5 47 -31
85 -57 86 -58 109 -69 100 -44 -4 10 -7 28 -7 41 0 27 -27 46 -80 55 -72 11
-43 70 35 70 34 0 45 5 63 30 12 16 22 31 22 34 0 3 -42 6 -92 6 -51 0 -106 2
-123 5 -116 17 -131 17 -144 2z"></path>
<path d="M3526 4814 c-9 -23 -8 -24 13 -24 25 0 38 20 20 31 -20 12 -26 11
-33 -7z"></path>
<path d="M3095 4655 c-140 -49 -131 -43 -112 -62 22 -23 77 -26 99 -6 10 9 27
16 40 17 14 1 26 11 35 33 7 18 9 34 5 35 -4 2 -34 -6 -67 -17z"></path>
<path d="M8687 4643 c-14 -13 -7 -32 14 -38 20 -7 59 18 59 37 0 10 -64 11
-73 1z"></path>
<path d="M8845 4540 c-3 -5 -1 -10 4 -10 6 0 11 5 11 10 0 6 -2 10 -4 10 -3 0
-8 -4 -11 -10z"></path>
<path d="M2400 4237 c0 -19 29 -75 42 -83 8 -5 9 1 4 17 -4 13 -10 36 -13 52
-5 27 -33 39 -33 14z"></path>
<path d="M1698 4193 c7 -3 16 -2 19 1 4 3 -2 6 -13 5 -11 0 -14 -3 -6 -6z"></path>
<path d="M2520 4060 c0 -5 9 -10 21 -10 11 0 17 5 14 10 -3 6 -13 10 -21 10
-8 0 -14 -4 -14 -10z"></path>
<path d="M2250 4019 c0 -5 5 -7 10 -4 6 3 10 8 10 11 0 2 -4 4 -10 4 -5 0 -10
-5 -10 -11z"></path>
<path d="M2398 3989 c-25 -14 -22 -29 5 -29 29 0 51 15 43 29 -9 14 -25 14
-48 0z"></path>
<path d="M2253 3954 c-25 -28 -29 -44 -13 -44 15 0 59 53 53 62 -7 13 -17 9
-40 -18z"></path>
<path d="M2173 3853 c-18 -2 -33 -8 -33 -13 0 -10 67 -18 81 -9 12 7 4 30 -9
27 -4 0 -22 -3 -39 -5z"></path>
<path d="M1824 3758 c-3 -4 9 -14 26 -23 27 -14 35 -14 72 -1 68 22 59 36 -22
33 -39 -1 -74 -5 -76 -9z"></path>
</g>
</svg><style>@media (prefers-color-scheme: light) { :root { filter: none; } }
</style></svg>